#format: frame checksums
#version: 2
#hash: MD5
#software: Lavf62.3.100
#tb 0: 1/30
#media_type 0: video
#codec_id 0: rawvideo
#dimensions 0: 464x848
#sar 0: 1/1
#stream#, dts,        pts, duration,     size, hash
0,          0,          0,        1,   590208, 7679d93f72cf117c7f99df15cc8cc951
0,          1,          1,        1,   590208, 34e3c9b235f8b44084658cb5ceaff9d7
0,          2,          2,        1,   590208, 22e14172e35cacb678dfc1d6ffcf6432
0,          3,          3,        1,   590208, a810ccd2380c3b5c9d93a8bf623faadb
0,          4,          4,        1,   590208, e7942a35447b34f2d6f20792971756be
0,          5,          5,        1,   590208, 6db4ac8fd8a33b5a8c40577bc81f3def
0,          6,          6,        1,   590208, 5edc7b919feaaaf1fbf697a7f906d28d
0,          7,          7,        1,   590208, 4c9e99ff6fb7c76dd380793c1fe9e08f
0,          8,          8,        1,   590208, cb87245112959e232cf4d5291fa9086e
0,          9,          9,        1,   590208, 3c3d61086a4d279bea19fcd846d4b678
0,         10,         10,        1,   590208, 3820df4fc8107a7327e049dd0faea13a
0,         11,         11,        1,   590208, 9f1216d9810f87c041a9490938e41aee
0,         12,         12,        1,   590208, 8f4b80205a93ce2e1503948488daf344
0,         13,         13,        1,   590208, 67fca5bcace7c042b790c6f13f5dce80
0,         14,         14,        1,   590208, 0708c8b48c6a7ce6f584bdb72d60cbb4
0,         15,         15,        1,   590208, 9aa191df24380bb164ff6d1f423fbe09
0,         16,         16,        1,   590208, 53eeeac216ee5653d8c81331aaba8889
0,         17,         17,        1,   590208, 48eec91877dec1dc6a12afea471d29d2
0,         18,         18,        1,   590208, 275a8f78c79c52455d42ab6b986919f2
0,         19,         19,        1,   590208, 3bb6627c1fda288651fe2e1481c22103
0,         20,         20,        1,   590208, 4f47ea44d10928ce4ebee12c93da96e7
0,         21,         21,        1,   590208, e41e58a102ee4abfa8540b251500238e
0,         22,         22,        1,   590208, 1ea9ad24bf4738dc6a555a323f8f6ab9
0,         23,         23,        1,   590208, b8302b21a4c4f1c92066464954cabdad
0,         24,         24,        1,   590208, 9150b4aa96180908d3940eaf7fde4a27
0,         25,         25,        1,   590208, 23ae2df42aeb068341439697a0beb0eb
0,         26,         26,        1,   590208, 11b6d566be5161676e37f7d96c6cb128
0,         27,         27,        1,   590208, 9fe1391050aa19d0ccd847c981e8828e
0,         28,         28,        1,   590208, 35e95b31be29b208913e211a0593fb2e
0,         29,         29,        1,   590208, 7b88a5ffad9658a37b36b5394f923396
0,         30,         30,        1,   590208, d2aa1a9ce244a5dfcaf9079e9622b6f0
0,         31,         31,        1,   590208, 449db9a9affe8c0ea7554708a3d1a997
0,         32,         32,        1,   590208, a89a3e88bdca31058a439ccb47050644
0,         33,         33,        1,   590208, e564cc9cd8b7590920f73d0a051875c5
0,         34,         34,        1,   590208, 39ddaede64880a0df1afa06251301e3c
0,         35,         35,        1,   590208, a842199c2bfcbc57ae15cc802f479431
0,         36,         36,        1,   590208, 88a83f6e13033790c77bb9282061ac1d
0,         37,         37,        1,   590208, 5775094cfeaacb47ff59f464fa8089e5
0,         38,         38,        1,   590208, aea4e41b07594f165a357963b02a9fdc
0,         39,         39,        1,   590208, 580aeb2e2c32f8ba5fa32aaba9c67eda
0,         40,         40,        1,   590208, 14a8c30e602775f91b4836954fbf8fc9
0,         41,         41,        1,   590208, 802b037d8bb2f4b5b59e6c5d1eacc14b
0,         42,         42,        1,   590208, 3fac5905b148e83d46693f5f77b44351
0,         43,         43,        1,   590208, 4707a970c3fa0798721c02ae6423e396
0,         44,         44,        1,   590208, f1316db7d0e30236967939d2fb83ccbb
0,         45,         45,        1,   590208, 7b902b5c55c630f4fd333d05fbadbff5
0,         46,         46,        1,   590208, 8222836d00216e0251ea02f607e532f1
0,         47,         47,        1,   590208, fc88323b2d292547e6874124f7a40ce4
0,         48,         48,        1,   590208, f470beb47223675ed9d2b6339acdfc37
0,         49,         49,        1,   590208, 23e1f05d98066ec55f82dcaab2751c96
0,         50,         50,        1,   590208, 75af93870cc7c92c742123a22085b1eb
0,         51,         51,        1,   590208, f66f7b17892ab95a71479b5e6298f855
0,         52,         52,        1,   590208, ebeb2d69ed7ad198d7d0478996c91a7b
0,         53,         53,        1,   590208, e4269d75bf3f3137c6c5cc7825a6298b
0,         54,         54,        1,   590208, 2fd9ebfa2432a916b85db3ca2bb1a416
0,         55,         55,        1,   590208, dc1ab33aefe310dd6d166928a7c74bd5
0,         56,         56,        1,   590208, bd50e230d65947b4d18153562a660f8c
0,         57,         57,        1,   590208, cf15fc6efdf7cb19362ed73279b04141
0,         58,         58,        1,   590208, e4c8ddb16a52848af9819bdcc90eca32
0,         59,         59,        1,   590208, 6209f74b7204b9b3bb70f9dd5a9e73d9
0,         60,         60,        1,   590208, 7d665f05fae25d2f5a76738bef7d2818
0,         61,         61,        1,   590208, 2b930c3a309df8b3fdafcd81d33d4c57
0,         62,         62,        1,   590208, e87ef32367ea5b077cc132ac4bc0cf3a
0,         63,         63,        1,   590208, ac3bdf570d15054bfaeb0658b0449d1c
0,         64,         64,        1,   590208, 7cd22ba8f1fb61e2140429eb8c7992f8
0,         65,         65,        1,   590208, 03cd844ff4e0612fa74a93aea6da985d
0,         66,         66,        1,   590208, 6d7d0c05dff27c4bd8824151867bef7a
0,         67,         67,        1,   590208, d7c11792148f7881fb87652f720634e6
0,         68,         68,        1,   590208, 0375e9a87570d175454b0d6d6606ac64
0,         69,         69,        1,   590208, 0142f8d350c791db29362780c13bed53
0,         70,         70,        1,   590208, 159f038903cdcb2b9bd49a8d2686763d
0,         71,         71,        1,   590208, a0476248df63ad952d097edc8c50df49
0,         72,         72,        1,   590208, 4097e72e151a451738045eea5e731d6d
0,         73,         73,        1,   590208, 34f3a0b3d4e03056a805fb5f8a902dbe
0,         74,         74,        1,   590208, 8a041d902c7a14970b6733648e896d05
0,         75,         75,        1,   590208, 85e6b960b85536ef67aba031c589e6a7
0,         76,         76,        1,   590208, 46fedc4f848e5151b0a5101ba4b21cbf
0,         77,         77,        1,   590208, 4dcda3eda1e682a7907a4b05a87bed11
0,         78,         78,        1,   590208, 16a69c1e9f2a130788d9a5988d008704
0,         79,         79,        1,   590208, 75dd2e95d32c5f448f8db311478399c7
0,         80,         80,        1,   590208, 8c7356f582b795ed345e9cf7796f0e09
0,         81,         81,        1,   590208, e27234da8be546785bfb2b0b0cdd6adf
0,         82,         82,        1,   590208, 0bb64b69388066604e378e5321c54a59
0,         83,         83,        1,   590208, 795efad0f5a0a362cd20232326574e9f
0,         84,         84,        1,   590208, d805a43d31c1139240d6286509a1edcc
0,         85,         85,        1,   590208, 37dc6dc87c4f93e7637a4d64f4a1ade1
0,         86,         86,        1,   590208, 029d3aa253923d041b15fee3a96e9230
0,         87,         87,        1,   590208, a9b056a8b9dcc8fb28be0352eb8828f6
0,         88,         88,        1,   590208, d678f11ef0e7298ed4cc8efbf0031a92
0,         89,         89,        1,   590208, 2ade60df38dffcdae431182253b3d67d
0,         90,         90,        1,   590208, 5ef1f31d53fd86253277cbe8fcae77d3
0,         91,         91,        1,   590208, 96887f20fd5373a38f76b48a735c3191
0,         92,         92,        1,   590208, 95fc6b37b7f60d98cdb73e55b2795b4a
0,         93,         93,        1,   590208, c37ac5f2f4db4e969235a2fd05af8014
0,         94,         94,        1,   590208, 611a8093ab6aececa2acfc3be3e10029
0,         95,         95,        1,   590208, 92618a58d81aab9c6743bbb8dc9a05fc
0,         96,         96,        1,   590208, 4df16dc205e089269457e6da4d5703e6
0,         97,         97,        1,   590208, 0cd2555836c2c3fb386fa8639f8743f9
0,         98,         98,        1,   590208, 2552857ba6d9fcc25fa0297d108e4b70
0,         99,         99,        1,   590208, 54cca6609b4b9936dc8c1d0ee320dd33
0,        100,        100,        1,   590208, 80b572376a7ed312229e38c0c0d178f9
0,        101,        101,        1,   590208, 2eda9f76f5d2f761e7c4d8c787c26e46
0,        102,        102,        1,   590208, dbfb862ce7452f80045bdc90965292c1
0,        103,        103,        1,   590208, bbc559ec7a7bbbb20784156f23273554
0,        104,        104,        1,   590208, 90f523acdb293b0bc9d5510b1564de78
0,        105,        105,        1,   590208, f73c0d810f337ac8de327bd137618e50
0,        106,        106,        1,   590208, 30e0e32108147c75a153ebe87bb09d59
0,        107,        107,        1,   590208, 475228f4227bb7dab9be421e60667e80
0,        108,        108,        1,   590208, b994cc697100d7c473a0b92de8b0033d
0,        109,        109,        1,   590208, ca64f07ba31212e053fab8b3d125cd04
0,        110,        110,        1,   590208, 0aa5c0537feb8bf08825b6289a61a2cf
0,        111,        111,        1,   590208, d79975cac29ba4359382c1ead4a0a7b3
0,        112,        112,        1,   590208, ff0598725e17639a159ce72f07f9da55
0,        113,        113,        1,   590208, 6afbc35324dd3ef55e48b1a214037ae7
0,        114,        114,        1,   590208, e8e034d5a24053dbbac0bc4fd95a9862
0,        115,        115,        1,   590208, f000f52eda95d521d222f2071fe0d8a0
0,        116,        116,        1,   590208, ff0598725e17639a159ce72f07f9da55
0,        117,        117,        1,   590208, 6afbc35324dd3ef55e48b1a214037ae7
0,        118,        118,        1,   590208, e8e034d5a24053dbbac0bc4fd95a9862
0,        119,        119,        1,   590208, d79975cac29ba4359382c1ead4a0a7b3
0,        120,        120,        1,   590208, ff0598725e17639a159ce72f07f9da55
0,        121,        121,        1,   590208, 6afbc35324dd3ef55e48b1a214037ae7
0,        122,        122,        1,   590208, e8e034d5a24053dbbac0bc4fd95a9862
0,        123,        123,        1,   590208, f000f52eda95d521d222f2071fe0d8a0
0,        124,        124,        1,   590208, ff0598725e17639a159ce72f07f9da55
0,        125,        125,        1,   590208, 6afbc35324dd3ef55e48b1a214037ae7
0,        126,        126,        1,   590208, e8e034d5a24053dbbac0bc4fd95a9862
0,        127,        127,        1,   590208, d79975cac29ba4359382c1ead4a0a7b3
0,        128,        128,        1,   590208, ff0598725e17639a159ce72f07f9da55
0,        129,        129,        1,   590208, 6afbc35324dd3ef55e48b1a214037ae7
0,        130,        130,        1,   590208, e8e034d5a24053dbbac0bc4fd95a9862
0,        131,        131,        1,   590208, f000f52eda95d521d222f2071fe0d8a0
0,        132,        132,        1,   590208, ff0598725e17639a159ce72f07f9da55
0,        133,        133,        1,   590208, 6afbc35324dd3ef55e48b1a214037ae7
0,        134,        134,        1,   590208, e8e034d5a24053dbbac0bc4fd95a9862
0,        135,        135,        1,   590208, d79975cac29ba4359382c1ead4a0a7b3
0,        136,        136,        1,   590208, ff0598725e17639a159ce72f07f9da55
0,        137,        137,        1,   590208, 6afbc35324dd3ef55e48b1a214037ae7
0,        138,        138,        1,   590208, e8e034d5a24053dbbac0bc4fd95a9862
0,        139,        139,        1,   590208, f000f52eda95d521d222f2071fe0d8a0
0,        140,        140,        1,   590208, ff0598725e17639a159ce72f07f9da55
0,        141,        141,        1,   590208, 6afbc35324dd3ef55e48b1a214037ae7
0,        142,        142,        1,   590208, e8e034d5a24053dbbac0bc4fd95a9862
0,        143,        143,        1,   590208, d79975cac29ba4359382c1ead4a0a7b3
0,        144,        144,        1,   590208, ff0598725e17639a159ce72f07f9da55
0,        145,        145,        1,   590208, 6afbc35324dd3ef55e48b1a214037ae7
0,        146,        146,        1,   590208, e8e034d5a24053dbbac0bc4fd95a9862
0,        147,        147,        1,   590208, f000f52eda95d521d222f2071fe0d8a0
0,        148,        148,        1,   590208, ff0598725e17639a159ce72f07f9da55
0,        149,        149,        1,   590208, 6afbc35324dd3ef55e48b1a214037ae7
0,        150,        150,        1,   590208, e8e034d5a24053dbbac0bc4fd95a9862
0,        151,        151,        1,   590208, d79975cac29ba4359382c1ead4a0a7b3
0,        152,        152,        1,   590208, ff0598725e17639a159ce72f07f9da55
0,        153,        153,        1,   590208, 6afbc35324dd3ef55e48b1a214037ae7
0,        154,        154,        1,   590208, e8e034d5a24053dbbac0bc4fd95a9862
0,        155,        155,        1,   590208, f000f52eda95d521d222f2071fe0d8a0
0,        156,        156,        1,   590208, ff0598725e17639a159ce72f07f9da55
0,        157,        157,        1,   590208, 6afbc35324dd3ef55e48b1a214037ae7
0,        158,        158,        1,   590208, e8e034d5a24053dbbac0bc4fd95a9862
0,        159,        159,        1,   590208, d79975cac29ba4359382c1ead4a0a7b3
0,        160,        160,        1,   590208, ff0598725e17639a159ce72f07f9da55
0,        161,        161,        1,   590208, 6afbc35324dd3ef55e48b1a214037ae7
0,        162,        162,        1,   590208, e8e034d5a24053dbbac0bc4fd95a9862
0,        163,        163,        1,   590208, f000f52eda95d521d222f2071fe0d8a0
0,        164,        164,        1,   590208, ff0598725e17639a159ce72f07f9da55
0,        165,        165,        1,   590208, 6afbc35324dd3ef55e48b1a214037ae7
0,        166,        166,        1,   590208, e8e034d5a24053dbbac0bc4fd95a9862
0,        167,        167,        1,   590208, d79975cac29ba4359382c1ead4a0a7b3
0,        168,        168,        1,   590208, ff0598725e17639a159ce72f07f9da55
0,        169,        169,        1,   590208, 6afbc35324dd3ef55e48b1a214037ae7
0,        170,        170,        1,   590208, e8e034d5a24053dbbac0bc4fd95a9862
0,        171,        171,        1,   590208, f000f52eda95d521d222f2071fe0d8a0
0,        172,        172,        1,   590208, ff0598725e17639a159ce72f07f9da55
0,        173,        173,        1,   590208, 6afbc35324dd3ef55e48b1a214037ae7
0,        174,        174,        1,   590208, e8e034d5a24053dbbac0bc4fd95a9862
0,        175,        175,        1,   590208, d79975cac29ba4359382c1ead4a0a7b3
0,        176,        176,        1,   590208, ff0598725e17639a159ce72f07f9da55
0,        177,        177,        1,   590208, 6afbc35324dd3ef55e48b1a214037ae7
0,        178,        178,        1,   590208, e8e034d5a24053dbbac0bc4fd95a9862
0,        179,        179,        1,   590208, f000f52eda95d521d222f2071fe0d8a0
0,        180,        180,        1,   590208, ff0598725e17639a159ce72f07f9da55
0,        181,        181,        1,   590208, 6afbc35324dd3ef55e48b1a214037ae7
0,        182,        182,        1,   590208, e8e034d5a24053dbbac0bc4fd95a9862
0,        183,        183,        1,   590208, d79975cac29ba4359382c1ead4a0a7b3
0,        184,        184,        1,   590208, 4aa34f7c374af118f096fbf9a670b505
0,        185,        185,        1,   590208, 369a0d04121ed146bb761e83eea6e75a
0,        186,        186,        1,   590208, 57258b09092fade61d423c7eea398f03
0,        187,        187,        1,   590208, b784390ce8ce8bcd027249dcfa3b562f
0,        188,        188,        1,   590208, 3c8257b8387c6244f2da5b8070181170
0,        189,        189,        1,   590208, eb8d6b05be92b8a7dff9453866d7f578
0,        190,        190,        1,   590208, dc35ef7e02dc777e62ec338d141c4eec
0,        191,        191,        1,   590208, 089da581f6c5cc3ae10e5803eff9e503
0,        192,        192,        1,   590208, 3c8257b8387c6244f2da5b8070181170
0,        193,        193,        1,   590208, eb8d6b05be92b8a7dff9453866d7f578
0,        194,        194,        1,   590208, dc35ef7e02dc777e62ec338d141c4eec
0,        195,        195,        1,   590208, b784390ce8ce8bcd027249dcfa3b562f
0,        196,        196,        1,   590208, 3c8257b8387c6244f2da5b8070181170
0,        197,        197,        1,   590208, eb8d6b05be92b8a7dff9453866d7f578
0,        198,        198,        1,   590208, dc35ef7e02dc777e62ec338d141c4eec
0,        199,        199,        1,   590208, 089da581f6c5cc3ae10e5803eff9e503
0,        200,        200,        1,   590208, 3c8257b8387c6244f2da5b8070181170
0,        201,        201,        1,   590208, eb8d6b05be92b8a7dff9453866d7f578
0,        202,        202,        1,   590208, dc35ef7e02dc777e62ec338d141c4eec
0,        203,        203,        1,   590208, b784390ce8ce8bcd027249dcfa3b562f
0,        204,        204,        1,   590208, 3c8257b8387c6244f2da5b8070181170
0,        205,        205,        1,   590208, eb8d6b05be92b8a7dff9453866d7f578
0,        206,        206,        1,   590208, dc35ef7e02dc777e62ec338d141c4eec
0,        207,        207,        1,   590208, 089da581f6c5cc3ae10e5803eff9e503
0,        208,        208,        1,   590208, 3c8257b8387c6244f2da5b8070181170
0,        209,        209,        1,   590208, eb8d6b05be92b8a7dff9453866d7f578
0,        210,        210,        1,   590208, dc35ef7e02dc777e62ec338d141c4eec
0,        211,        211,        1,   590208, b784390ce8ce8bcd027249dcfa3b562f
0,        212,        212,        1,   590208, 3c8257b8387c6244f2da5b8070181170
0,        213,        213,        1,   590208, eb8d6b05be92b8a7dff9453866d7f578
0,        214,        214,        1,   590208, dc35ef7e02dc777e62ec338d141c4eec
0,        215,        215,        1,   590208, 089da581f6c5cc3ae10e5803eff9e503
0,        216,        216,        1,   590208, 3c8257b8387c6244f2da5b8070181170
0,        217,        217,        1,   590208, eb8d6b05be92b8a7dff9453866d7f578
0,        218,        218,        1,   590208, dc35ef7e02dc777e62ec338d141c4eec
0,        219,        219,        1,   590208, b784390ce8ce8bcd027249dcfa3b562f
0,        220,        220,        1,   590208, 3c8257b8387c6244f2da5b8070181170
0,        221,        221,        1,   590208, eb8d6b05be92b8a7dff9453866d7f578
0,        222,        222,        1,   590208, dc35ef7e02dc777e62ec338d141c4eec
0,        223,        223,        1,   590208, 089da581f6c5cc3ae10e5803eff9e503
0,        224,        224,        1,   590208, 3c8257b8387c6244f2da5b8070181170
0,        225,        225,        1,   590208, eb8d6b05be92b8a7dff9453866d7f578
0,        226,        226,        1,   590208, dc35ef7e02dc777e62ec338d141c4eec
0,        227,        227,        1,   590208, b784390ce8ce8bcd027249dcfa3b562f
0,        228,        228,        1,   590208, 3c8257b8387c6244f2da5b8070181170
0,        229,        229,        1,   590208, eb8d6b05be92b8a7dff9453866d7f578
0,        230,        230,        1,   590208, dc35ef7e02dc777e62ec338d141c4eec
0,        231,        231,        1,   590208, 089da581f6c5cc3ae10e5803eff9e503
0,        232,        232,        1,   590208, 3c8257b8387c6244f2da5b8070181170
0,        233,        233,        1,   590208, eb8d6b05be92b8a7dff9453866d7f578
0,        234,        234,        1,   590208, dc35ef7e02dc777e62ec338d141c4eec
0,        235,        235,        1,   590208, b784390ce8ce8bcd027249dcfa3b562f
0,        236,        236,        1,   590208, 3c8257b8387c6244f2da5b8070181170
0,        237,        237,        1,   590208, eb8d6b05be92b8a7dff9453866d7f578
0,        238,        238,        1,   590208, dc35ef7e02dc777e62ec338d141c4eec
0,        239,        239,        1,   590208, 089da581f6c5cc3ae10e5803eff9e503
0,        240,        240,        1,   590208, 3c8257b8387c6244f2da5b8070181170
0,        241,        241,        1,   590208, eb8d6b05be92b8a7dff9453866d7f578
0,        242,        242,        1,   590208, dc35ef7e02dc777e62ec338d141c4eec
0,        243,        243,        1,   590208, b784390ce8ce8bcd027249dcfa3b562f
0,        244,        244,        1,   590208, 3c8257b8387c6244f2da5b8070181170
0,        245,        245,        1,   590208, eb8d6b05be92b8a7dff9453866d7f578
0,        246,        246,        1,   590208, dc35ef7e02dc777e62ec338d141c4eec
0,        247,        247,        1,   590208, 089da581f6c5cc3ae10e5803eff9e503
0,        248,        248,        1,   590208, 3c8257b8387c6244f2da5b8070181170
0,        249,        249,        1,   590208, eb8d6b05be92b8a7dff9453866d7f578
0,        250,        250,        1,   590208, dc35ef7e02dc777e62ec338d141c4eec
0,        251,        251,        1,   590208, b784390ce8ce8bcd027249dcfa3b562f
0,        252,        252,        1,   590208, 3c8257b8387c6244f2da5b8070181170
0,        253,        253,        1,   590208, eb8d6b05be92b8a7dff9453866d7f578
0,        254,        254,        1,   590208, dc35ef7e02dc777e62ec338d141c4eec
0,        255,        255,        1,   590208, 089da581f6c5cc3ae10e5803eff9e503
0,        256,        256,        1,   590208, 3c8257b8387c6244f2da5b8070181170
0,        257,        257,        1,   590208, eb8d6b05be92b8a7dff9453866d7f578
0,        258,        258,        1,   590208, dc35ef7e02dc777e62ec338d141c4eec
0,        259,        259,        1,   590208, b784390ce8ce8bcd027249dcfa3b562f
0,        260,        260,        1,   590208, 3c8257b8387c6244f2da5b8070181170
0,        261,        261,        1,   590208, eb8d6b05be92b8a7dff9453866d7f578
0,        262,        262,        1,   590208, dc35ef7e02dc777e62ec338d141c4eec
0,        263,        263,        1,   590208, 089da581f6c5cc3ae10e5803eff9e503
0,        264,        264,        1,   590208, 3c8257b8387c6244f2da5b8070181170
0,        265,        265,        1,   590208, eb8d6b05be92b8a7dff9453866d7f578
0,        266,        266,        1,   590208, dc35ef7e02dc777e62ec338d141c4eec
0,        267,        267,        1,   590208, b784390ce8ce8bcd027249dcfa3b562f
0,        268,        268,        1,   590208, 3c8257b8387c6244f2da5b8070181170
0,        269,        269,        1,   590208, eb8d6b05be92b8a7dff9453866d7f578
0,        270,        270,        1,   590208, dc35ef7e02dc777e62ec338d141c4eec
0,        271,        271,        1,   590208, 089da581f6c5cc3ae10e5803eff9e503
0,        272,        272,        1,   590208, 3c8257b8387c6244f2da5b8070181170
0,        273,        273,        1,   590208, eb8d6b05be92b8a7dff9453866d7f578
0,        274,        274,        1,   590208, dc35ef7e02dc777e62ec338d141c4eec
0,        275,        275,        1,   590208, b784390ce8ce8bcd027249dcfa3b562f
0,        276,        276,        1,   590208, 3c8257b8387c6244f2da5b8070181170
0,        277,        277,        1,   590208, eb8d6b05be92b8a7dff9453866d7f578
0,        278,        278,        1,   590208, dc35ef7e02dc777e62ec338d141c4eec
0,        279,        279,        1,   590208, 089da581f6c5cc3ae10e5803eff9e503
0,        280,        280,        1,   590208, 3c8257b8387c6244f2da5b8070181170
0,        281,        281,        1,   590208, eb8d6b05be92b8a7dff9453866d7f578
0,        282,        282,        1,   590208, dc35ef7e02dc777e62ec338d141c4eec
0,        283,        283,        1,   590208, b784390ce8ce8bcd027249dcfa3b562f
0,        284,        284,        1,   590208, a1d620b77e11f086a8b877dfc873e3a7
0,        285,        285,        1,   590208, b784390ce8ce8bcd027249dcfa3b562f
0,        286,        286,        1,   590208, 3fbb055774cc9a638a653fece0be2c45
0,        287,        287,        1,   590208, c9de792f4e26d1d2ed89d9fa17cdf297
0,        288,        288,        1,   590208, c9de792f4e26d1d2ed89d9fa17cdf297
0,        289,        289,        1,   590208, c9de792f4e26d1d2ed89d9fa17cdf297
0,        290,        290,        1,   590208, 62ab78e1b037064fff0913f1b031979a
0,        291,        291,        1,   590208, 2f78b3bbf9866cef066b0997f496344b
0,        292,        292,        1,   590208, 7b15c1f881f08d4dcde850e074809e3a
0,        293,        293,        1,   590208, 6d782125950e6bd95ccd7c95ccce3563
0,        294,        294,        1,   590208, 261b72214f65329f2f28282931893d34
0,        295,        295,        1,   590208, f9785b9b3f9a328c6a289494a0bbf1d0
0,        296,        296,        1,   590208, f9785b9b3f9a328c6a289494a0bbf1d0
0,        297,        297,        1,   590208, f9785b9b3f9a328c6a289494a0bbf1d0
0,        298,        298,        1,   590208, b39a82c0b956a1b1462603ae68e2e55c
0,        299,        299,        1,   590208, f9785b9b3f9a328c6a289494a0bbf1d0
0,        300,        300,        1,   590208, f9785b9b3f9a328c6a289494a0bbf1d0
0,        301,        301,        1,   590208, f9785b9b3f9a328c6a289494a0bbf1d0
0,        302,        302,        1,   590208, 261b72214f65329f2f28282931893d34
0,        303,        303,        1,   590208, f9785b9b3f9a328c6a289494a0bbf1d0
0,        304,        304,        1,   590208, f9785b9b3f9a328c6a289494a0bbf1d0
0,        305,        305,        1,   590208, f9785b9b3f9a328c6a289494a0bbf1d0
0,        306,        306,        1,   590208, b39a82c0b956a1b1462603ae68e2e55c
0,        307,        307,        1,   590208, f9785b9b3f9a328c6a289494a0bbf1d0
0,        308,        308,        1,   590208, f9785b9b3f9a328c6a289494a0bbf1d0
0,        309,        309,        1,   590208, f9785b9b3f9a328c6a289494a0bbf1d0
0,        310,        310,        1,   590208, 261b72214f65329f2f28282931893d34
0,        311,        311,        1,   590208, f9785b9b3f9a328c6a289494a0bbf1d0
0,        312,        312,        1,   590208, f9785b9b3f9a328c6a289494a0bbf1d0
0,        313,        313,        1,   590208, f9785b9b3f9a328c6a289494a0bbf1d0
0,        314,        314,        1,   590208, b39a82c0b956a1b1462603ae68e2e55c
0,        315,        315,        1,   590208, f9785b9b3f9a328c6a289494a0bbf1d0
0,        316,        316,        1,   590208, f9785b9b3f9a328c6a289494a0bbf1d0
0,        317,        317,        1,   590208, f9785b9b3f9a328c6a289494a0bbf1d0
0,        318,        318,        1,   590208, 261b72214f65329f2f28282931893d34
0,        319,        319,        1,   590208, f9785b9b3f9a328c6a289494a0bbf1d0
0,        320,        320,        1,   590208, f9785b9b3f9a328c6a289494a0bbf1d0
0,        321,        321,        1,   590208, f9785b9b3f9a328c6a289494a0bbf1d0
0,        322,        322,        1,   590208, b39a82c0b956a1b1462603ae68e2e55c
0,        323,        323,        1,   590208, f9785b9b3f9a328c6a289494a0bbf1d0
0,        324,        324,        1,   590208, f9785b9b3f9a328c6a289494a0bbf1d0
0,        325,        325,        1,   590208, f9785b9b3f9a328c6a289494a0bbf1d0
0,        326,        326,        1,   590208, 261b72214f65329f2f28282931893d34
0,        327,        327,        1,   590208, f9785b9b3f9a328c6a289494a0bbf1d0
0,        328,        328,        1,   590208, f9785b9b3f9a328c6a289494a0bbf1d0
0,        329,        329,        1,   590208, f9785b9b3f9a328c6a289494a0bbf1d0
0,        330,        330,        1,   590208, b39a82c0b956a1b1462603ae68e2e55c
0,        331,        331,        1,   590208, f9785b9b3f9a328c6a289494a0bbf1d0
0,        332,        332,        1,   590208, f9785b9b3f9a328c6a289494a0bbf1d0
0,        333,        333,        1,   590208, f9785b9b3f9a328c6a289494a0bbf1d0
0,        334,        334,        1,   590208, 261b72214f65329f2f28282931893d34
0,        335,        335,        1,   590208, f9785b9b3f9a328c6a289494a0bbf1d0
0,        336,        336,        1,   590208, f9785b9b3f9a328c6a289494a0bbf1d0
0,        337,        337,        1,   590208, f9785b9b3f9a328c6a289494a0bbf1d0
0,        338,        338,        1,   590208, b39a82c0b956a1b1462603ae68e2e55c
0,        339,        339,        1,   590208, f9785b9b3f9a328c6a289494a0bbf1d0
0,        340,        340,        1,   590208, f9785b9b3f9a328c6a289494a0bbf1d0
0,        341,        341,        1,   590208, f9785b9b3f9a328c6a289494a0bbf1d0
0,        342,        342,        1,   590208, 261b72214f65329f2f28282931893d34
0,        343,        343,        1,   590208, f9785b9b3f9a328c6a289494a0bbf1d0
0,        344,        344,        1,   590208, f9785b9b3f9a328c6a289494a0bbf1d0
0,        345,        345,        1,   590208, f9785b9b3f9a328c6a289494a0bbf1d0
0,        346,        346,        1,   590208, b39a82c0b956a1b1462603ae68e2e55c
0,        347,        347,        1,   590208, f9785b9b3f9a328c6a289494a0bbf1d0
0,        348,        348,        1,   590208, f9785b9b3f9a328c6a289494a0bbf1d0
0,        349,        349,        1,   590208, f9785b9b3f9a328c6a289494a0bbf1d0
0,        350,        350,        1,   590208, 261b72214f65329f2f28282931893d34
0,        351,        351,        1,   590208, f9785b9b3f9a328c6a289494a0bbf1d0
0,        352,        352,        1,   590208, f9785b9b3f9a328c6a289494a0bbf1d0
0,        353,        353,        1,   590208, f9785b9b3f9a328c6a289494a0bbf1d0
0,        354,        354,        1,   590208, b39a82c0b956a1b1462603ae68e2e55c
0,        355,        355,        1,   590208, f9785b9b3f9a328c6a289494a0bbf1d0
0,        356,        356,        1,   590208, f9785b9b3f9a328c6a289494a0bbf1d0
0,        357,        357,        1,   590208, f9785b9b3f9a328c6a289494a0bbf1d0
0,        358,        358,        1,   590208, 261b72214f65329f2f28282931893d34
0,        359,        359,        1,   590208, f9785b9b3f9a328c6a289494a0bbf1d0
0,        360,        360,        1,   590208, f9785b9b3f9a328c6a289494a0bbf1d0
0,        361,        361,        1,   590208, f9785b9b3f9a328c6a289494a0bbf1d0
0,        362,        362,        1,   590208, b39a82c0b956a1b1462603ae68e2e55c
0,        363,        363,        1,   590208, f9785b9b3f9a328c6a289494a0bbf1d0
0,        364,        364,        1,   590208, f9785b9b3f9a328c6a289494a0bbf1d0
0,        365,        365,        1,   590208, f9785b9b3f9a328c6a289494a0bbf1d0
0,        366,        366,        1,   590208, 261b72214f65329f2f28282931893d34
0,        367,        367,        1,   590208, f9785b9b3f9a328c6a289494a0bbf1d0
0,        368,        368,        1,   590208, f9785b9b3f9a328c6a289494a0bbf1d0
0,        369,        369,        1,   590208, f9785b9b3f9a328c6a289494a0bbf1d0
0,        370,        370,        1,   590208, b39a82c0b956a1b1462603ae68e2e55c
0,        371,        371,        1,   590208, f9785b9b3f9a328c6a289494a0bbf1d0
0,        372,        372,        1,   590208, f9785b9b3f9a328c6a289494a0bbf1d0
0,        373,        373,        1,   590208, f9785b9b3f9a328c6a289494a0bbf1d0
0,        374,        374,        1,   590208, 261b72214f65329f2f28282931893d34
0,        375,        375,        1,   590208, f9785b9b3f9a328c6a289494a0bbf1d0
0,        376,        376,        1,   590208, f9785b9b3f9a328c6a289494a0bbf1d0
0,        377,        377,        1,   590208, f9785b9b3f9a328c6a289494a0bbf1d0
0,        378,        378,        1,   590208, b39a82c0b956a1b1462603ae68e2e55c
0,        379,        379,        1,   590208, f9785b9b3f9a328c6a289494a0bbf1d0
0,        380,        380,        1,   590208, f9785b9b3f9a328c6a289494a0bbf1d0
0,        381,        381,        1,   590208, f9785b9b3f9a328c6a289494a0bbf1d0
0,        382,        382,        1,   590208, 261b72214f65329f2f28282931893d34
0,        383,        383,        1,   590208, f9785b9b3f9a328c6a289494a0bbf1d0
0,        384,        384,        1,   590208, f9785b9b3f9a328c6a289494a0bbf1d0
0,        385,        385,        1,   590208, f9785b9b3f9a328c6a289494a0bbf1d0
0,        386,        386,        1,   590208, b39a82c0b956a1b1462603ae68e2e55c
0,        387,        387,        1,   590208, f9785b9b3f9a328c6a289494a0bbf1d0
0,        388,        388,        1,   590208, f9785b9b3f9a328c6a289494a0bbf1d0
0,        389,        389,        1,   590208, f9785b9b3f9a328c6a289494a0bbf1d0
0,        390,        390,        1,   590208, 261b72214f65329f2f28282931893d34
0,        391,        391,        1,   590208, f9785b9b3f9a328c6a289494a0bbf1d0
0,        392,        392,        1,   590208, f9785b9b3f9a328c6a289494a0bbf1d0
0,        393,        393,        1,   590208, f9785b9b3f9a328c6a289494a0bbf1d0
0,        394,        394,        1,   590208, b39a82c0b956a1b1462603ae68e2e55c
0,        395,        395,        1,   590208, f9785b9b3f9a328c6a289494a0bbf1d0
0,        396,        396,        1,   590208, f9785b9b3f9a328c6a289494a0bbf1d0
0,        397,        397,        1,   590208, f9785b9b3f9a328c6a289494a0bbf1d0
0,        398,        398,        1,   590208, 261b72214f65329f2f28282931893d34
0,        399,        399,        1,   590208, f9785b9b3f9a328c6a289494a0bbf1d0
0,        400,        400,        1,   590208, f9785b9b3f9a328c6a289494a0bbf1d0
0,        401,        401,        1,   590208, f9785b9b3f9a328c6a289494a0bbf1d0
0,        402,        402,        1,   590208, b39a82c0b956a1b1462603ae68e2e55c
0,        403,        403,        1,   590208, f9785b9b3f9a328c6a289494a0bbf1d0
0,        404,        404,        1,   590208, f9785b9b3f9a328c6a289494a0bbf1d0
0,        405,        405,        1,   590208, f9785b9b3f9a328c6a289494a0bbf1d0
0,        406,        406,        1,   590208, 261b72214f65329f2f28282931893d34
0,        407,        407,        1,   590208, f9785b9b3f9a328c6a289494a0bbf1d0
0,        408,        408,        1,   590208, f9785b9b3f9a328c6a289494a0bbf1d0
0,        409,        409,        1,   590208, f9785b9b3f9a328c6a289494a0bbf1d0
0,        410,        410,        1,   590208, b39a82c0b956a1b1462603ae68e2e55c
0,        411,        411,        1,   590208, f9785b9b3f9a328c6a289494a0bbf1d0
0,        412,        412,        1,   590208, f9785b9b3f9a328c6a289494a0bbf1d0
0,        413,        413,        1,   590208, f9785b9b3f9a328c6a289494a0bbf1d0
0,        414,        414,        1,   590208, 261b72214f65329f2f28282931893d34
0,        415,        415,        1,   590208, f9785b9b3f9a328c6a289494a0bbf1d0
0,        416,        416,        1,   590208, f9785b9b3f9a328c6a289494a0bbf1d0
0,        417,        417,        1,   590208, f9785b9b3f9a328c6a289494a0bbf1d0
0,        418,        418,        1,   590208, b39a82c0b956a1b1462603ae68e2e55c
0,        419,        419,        1,   590208, f9785b9b3f9a328c6a289494a0bbf1d0
0,        420,        420,        1,   590208, f9785b9b3f9a328c6a289494a0bbf1d0
0,        421,        421,        1,   590208, f9785b9b3f9a328c6a289494a0bbf1d0
0,        422,        422,        1,   590208, 261b72214f65329f2f28282931893d34
0,        423,        423,        1,   590208, f9785b9b3f9a328c6a289494a0bbf1d0
0,        424,        424,        1,   590208, f9785b9b3f9a328c6a289494a0bbf1d0
0,        425,        425,        1,   590208, f9785b9b3f9a328c6a289494a0bbf1d0
0,        426,        426,        1,   590208, b39a82c0b956a1b1462603ae68e2e55c
0,        427,        427,        1,   590208, f9785b9b3f9a328c6a289494a0bbf1d0
0,        428,        428,        1,   590208, f9785b9b3f9a328c6a289494a0bbf1d0
0,        429,        429,        1,   590208, f9785b9b3f9a328c6a289494a0bbf1d0
0,        430,        430,        1,   590208, 261b72214f65329f2f28282931893d34
0,        431,        431,        1,   590208, f9785b9b3f9a328c6a289494a0bbf1d0
0,        432,        432,        1,   590208, f9785b9b3f9a328c6a289494a0bbf1d0
0,        433,        433,        1,   590208, f9785b9b3f9a328c6a289494a0bbf1d0
0,        434,        434,        1,   590208, b39a82c0b956a1b1462603ae68e2e55c
0,        435,        435,        1,   590208, f9785b9b3f9a328c6a289494a0bbf1d0
0,        436,        436,        1,   590208, f9785b9b3f9a328c6a289494a0bbf1d0
0,        437,        437,        1,   590208, f9785b9b3f9a328c6a289494a0bbf1d0
0,        438,        438,        1,   590208, 261b72214f65329f2f28282931893d34
0,        439,        439,        1,   590208, f9785b9b3f9a328c6a289494a0bbf1d0
0,        440,        440,        1,   590208, f9785b9b3f9a328c6a289494a0bbf1d0
0,        441,        441,        1,   590208, f9785b9b3f9a328c6a289494a0bbf1d0
0,        442,        442,        1,   590208, b39a82c0b956a1b1462603ae68e2e55c
0,        443,        443,        1,   590208, f9785b9b3f9a328c6a289494a0bbf1d0
0,        444,        444,        1,   590208, f9785b9b3f9a328c6a289494a0bbf1d0
0,        445,        445,        1,   590208, f9785b9b3f9a328c6a289494a0bbf1d0
0,        446,        446,        1,   590208, 261b72214f65329f2f28282931893d34
0,        447,        447,        1,   590208, f9785b9b3f9a328c6a289494a0bbf1d0
0,        448,        448,        1,   590208, f9785b9b3f9a328c6a289494a0bbf1d0
0,        449,        449,        1,   590208, f9785b9b3f9a328c6a289494a0bbf1d0
0,        450,        450,        1,   590208, b39a82c0b956a1b1462603ae68e2e55c
0,        451,        451,        1,   590208, f9785b9b3f9a328c6a289494a0bbf1d0
0,        452,        452,        1,   590208, f9785b9b3f9a328c6a289494a0bbf1d0
0,        453,        453,        1,   590208, f9785b9b3f9a328c6a289494a0bbf1d0
0,        454,        454,        1,   590208, 261b72214f65329f2f28282931893d34
0,        455,        455,        1,   590208, f9785b9b3f9a328c6a289494a0bbf1d0
0,        456,        456,        1,   590208, f9785b9b3f9a328c6a289494a0bbf1d0
0,        457,        457,        1,   590208, f9785b9b3f9a328c6a289494a0bbf1d0
0,        458,        458,        1,   590208, b39a82c0b956a1b1462603ae68e2e55c
0,        459,        459,        1,   590208, f9785b9b3f9a328c6a289494a0bbf1d0
0,        460,        460,        1,   590208, f9785b9b3f9a328c6a289494a0bbf1d0
0,        461,        461,        1,   590208, f9785b9b3f9a328c6a289494a0bbf1d0
0,        462,        462,        1,   590208, 261b72214f65329f2f28282931893d34
0,        463,        463,        1,   590208, f9785b9b3f9a328c6a289494a0bbf1d0
0,        464,        464,        1,   590208, f9785b9b3f9a328c6a289494a0bbf1d0
0,        465,        465,        1,   590208, f9785b9b3f9a328c6a289494a0bbf1d0
0,        466,        466,        1,   590208, b39a82c0b956a1b1462603ae68e2e55c
0,        467,        467,        1,   590208, f9785b9b3f9a328c6a289494a0bbf1d0
0,        468,        468,        1,   590208, f9785b9b3f9a328c6a289494a0bbf1d0
0,        469,        469,        1,   590208, f9785b9b3f9a328c6a289494a0bbf1d0
0,        470,        470,        1,   590208, 261b72214f65329f2f28282931893d34
0,        471,        471,        1,   590208, f9785b9b3f9a328c6a289494a0bbf1d0
0,        472,        472,        1,   590208, f9785b9b3f9a328c6a289494a0bbf1d0
0,        473,        473,        1,   590208, f9785b9b3f9a328c6a289494a0bbf1d0
0,        474,        474,        1,   590208, b39a82c0b956a1b1462603ae68e2e55c
0,        475,        475,        1,   590208, f9785b9b3f9a328c6a289494a0bbf1d0
0,        476,        476,        1,   590208, f9785b9b3f9a328c6a289494a0bbf1d0
0,        477,        477,        1,   590208, f9785b9b3f9a328c6a289494a0bbf1d0
0,        478,        478,        1,   590208, 261b72214f65329f2f28282931893d34
0,        479,        479,        1,   590208, f9785b9b3f9a328c6a289494a0bbf1d0
0,        480,        480,        1,   590208, f9785b9b3f9a328c6a289494a0bbf1d0
0,        481,        481,        1,   590208, f9785b9b3f9a328c6a289494a0bbf1d0
0,        482,        482,        1,   590208, b39a82c0b956a1b1462603ae68e2e55c
0,        483,        483,        1,   590208, f9785b9b3f9a328c6a289494a0bbf1d0
0,        484,        484,        1,   590208, f9785b9b3f9a328c6a289494a0bbf1d0
0,        485,        485,        1,   590208, f9785b9b3f9a328c6a289494a0bbf1d0
0,        486,        486,        1,   590208, 261b72214f65329f2f28282931893d34
0,        487,        487,        1,   590208, f9785b9b3f9a328c6a289494a0bbf1d0
0,        488,        488,        1,   590208, f9785b9b3f9a328c6a289494a0bbf1d0
0,        489,        489,        1,   590208, f9785b9b3f9a328c6a289494a0bbf1d0
0,        490,        490,        1,   590208, b39a82c0b956a1b1462603ae68e2e55c
0,        491,        491,        1,   590208, f9785b9b3f9a328c6a289494a0bbf1d0
0,        492,        492,        1,   590208, f9785b9b3f9a328c6a289494a0bbf1d0
0,        493,        493,        1,   590208, f9785b9b3f9a328c6a289494a0bbf1d0
0,        494,        494,        1,   590208, 261b72214f65329f2f28282931893d34
0,        495,        495,        1,   590208, f9785b9b3f9a328c6a289494a0bbf1d0
0,        496,        496,        1,   590208, f9785b9b3f9a328c6a289494a0bbf1d0
0,        497,        497,        1,   590208, f9785b9b3f9a328c6a289494a0bbf1d0
0,        498,        498,        1,   590208, b39a82c0b956a1b1462603ae68e2e55c
0,        499,        499,        1,   590208, f9785b9b3f9a328c6a289494a0bbf1d0
0,        500,        500,        1,   590208, f9785b9b3f9a328c6a289494a0bbf1d0
0,        501,        501,        1,   590208, f9785b9b3f9a328c6a289494a0bbf1d0
0,        502,        502,        1,   590208, 261b72214f65329f2f28282931893d34
0,        503,        503,        1,   590208, f9785b9b3f9a328c6a289494a0bbf1d0
0,        504,        504,        1,   590208, f9785b9b3f9a328c6a289494a0bbf1d0
0,        505,        505,        1,   590208, f9785b9b3f9a328c6a289494a0bbf1d0
0,        506,        506,        1,   590208, b39a82c0b956a1b1462603ae68e2e55c
0,        507,        507,        1,   590208, f9785b9b3f9a328c6a289494a0bbf1d0
0,        508,        508,        1,   590208, f9785b9b3f9a328c6a289494a0bbf1d0
0,        509,        509,        1,   590208, f9785b9b3f9a328c6a289494a0bbf1d0
0,        510,        510,        1,   590208, 261b72214f65329f2f28282931893d34
0,        511,        511,        1,   590208, f9785b9b3f9a328c6a289494a0bbf1d0
0,        512,        512,        1,   590208, f9785b9b3f9a328c6a289494a0bbf1d0
0,        513,        513,        1,   590208, f9785b9b3f9a328c6a289494a0bbf1d0
0,        514,        514,        1,   590208, b39a82c0b956a1b1462603ae68e2e55c
0,        515,        515,        1,   590208, f9785b9b3f9a328c6a289494a0bbf1d0
0,        516,        516,        1,   590208, f9785b9b3f9a328c6a289494a0bbf1d0
0,        517,        517,        1,   590208, f9785b9b3f9a328c6a289494a0bbf1d0
0,        518,        518,        1,   590208, 261b72214f65329f2f28282931893d34
0,        519,        519,        1,   590208, f9785b9b3f9a328c6a289494a0bbf1d0
0,        520,        520,        1,   590208, f9785b9b3f9a328c6a289494a0bbf1d0
0,        521,        521,        1,   590208, f9785b9b3f9a328c6a289494a0bbf1d0
0,        522,        522,        1,   590208, b39a82c0b956a1b1462603ae68e2e55c
0,        523,        523,        1,   590208, f9785b9b3f9a328c6a289494a0bbf1d0
0,        524,        524,        1,   590208, f9785b9b3f9a328c6a289494a0bbf1d0
0,        525,        525,        1,   590208, f9785b9b3f9a328c6a289494a0bbf1d0
0,        526,        526,        1,   590208, 261b72214f65329f2f28282931893d34
0,        527,        527,        1,   590208, f9785b9b3f9a328c6a289494a0bbf1d0
0,        528,        528,        1,   590208, f9785b9b3f9a328c6a289494a0bbf1d0
0,        529,        529,        1,   590208, f9785b9b3f9a328c6a289494a0bbf1d0
0,        530,        530,        1,   590208, b39a82c0b956a1b1462603ae68e2e55c
0,        531,        531,        1,   590208, f9785b9b3f9a328c6a289494a0bbf1d0
0,        532,        532,        1,   590208, f9785b9b3f9a328c6a289494a0bbf1d0
0,        533,        533,        1,   590208, f9785b9b3f9a328c6a289494a0bbf1d0
0,        534,        534,        1,   590208, 261b72214f65329f2f28282931893d34
0,        535,        535,        1,   590208, 261b72214f65329f2f28282931893d34
0,        536,        536,        1,   590208, 3fbb055774cc9a638a653fece0be2c45
0,        537,        537,        1,   590208, c9de792f4e26d1d2ed89d9fa17cdf297
0,        538,        538,        1,   590208, c9de792f4e26d1d2ed89d9fa17cdf297
0,        539,        539,        1,   590208, c9de792f4e26d1d2ed89d9fa17cdf297
0,        540,        540,        1,   590208, 62ab78e1b037064fff0913f1b031979a
0,        541,        541,        1,   590208, 2f78b3bbf9866cef066b0997f496344b
0,        542,        542,        1,   590208, 7b15c1f881f08d4dcde850e074809e3a
0,        543,        543,        1,   590208, 6d782125950e6bd95ccd7c95ccce3563
0,        544,        544,        1,   590208, 261b72214f65329f2f28282931893d34
0,        545,        545,        1,   590208, f9785b9b3f9a328c6a289494a0bbf1d0
0,        546,        546,        1,   590208, f9785b9b3f9a328c6a289494a0bbf1d0
0,        547,        547,        1,   590208, f9785b9b3f9a328c6a289494a0bbf1d0
0,        548,        548,        1,   590208, b39a82c0b956a1b1462603ae68e2e55c
0,        549,        549,        1,   590208, f9785b9b3f9a328c6a289494a0bbf1d0
0,        550,        550,        1,   590208, f9785b9b3f9a328c6a289494a0bbf1d0
0,        551,        551,        1,   590208, f9785b9b3f9a328c6a289494a0bbf1d0
0,        552,        552,        1,   590208, 261b72214f65329f2f28282931893d34
0,        553,        553,        1,   590208, f9785b9b3f9a328c6a289494a0bbf1d0
0,        554,        554,        1,   590208, f9785b9b3f9a328c6a289494a0bbf1d0
0,        555,        555,        1,   590208, f9785b9b3f9a328c6a289494a0bbf1d0
0,        556,        556,        1,   590208, b39a82c0b956a1b1462603ae68e2e55c
0,        557,        557,        1,   590208, f9785b9b3f9a328c6a289494a0bbf1d0
0,        558,        558,        1,   590208, f9785b9b3f9a328c6a289494a0bbf1d0
0,        559,        559,        1,   590208, f9785b9b3f9a328c6a289494a0bbf1d0
0,        560,        560,        1,   590208, 261b72214f65329f2f28282931893d34
0,        561,        561,        1,   590208, f9785b9b3f9a328c6a289494a0bbf1d0
0,        562,        562,        1,   590208, f9785b9b3f9a328c6a289494a0bbf1d0
0,        563,        563,        1,   590208, f9785b9b3f9a328c6a289494a0bbf1d0
0,        564,        564,        1,   590208, b39a82c0b956a1b1462603ae68e2e55c
0,        565,        565,        1,   590208, f9785b9b3f9a328c6a289494a0bbf1d0
0,        566,        566,        1,   590208, f9785b9b3f9a328c6a289494a0bbf1d0
0,        567,        567,        1,   590208, f9785b9b3f9a328c6a289494a0bbf1d0
0,        568,        568,        1,   590208, 261b72214f65329f2f28282931893d34
0,        569,        569,        1,   590208, f9785b9b3f9a328c6a289494a0bbf1d0
0,        570,        570,        1,   590208, f9785b9b3f9a328c6a289494a0bbf1d0
0,        571,        571,        1,   590208, f9785b9b3f9a328c6a289494a0bbf1d0
0,        572,        572,        1,   590208, b39a82c0b956a1b1462603ae68e2e55c
0,        573,        573,        1,   590208, f9785b9b3f9a328c6a289494a0bbf1d0
0,        574,        574,        1,   590208, f9785b9b3f9a328c6a289494a0bbf1d0
0,        575,        575,        1,   590208, f9785b9b3f9a328c6a289494a0bbf1d0
0,        576,        576,        1,   590208, 261b72214f65329f2f28282931893d34
0,        577,        577,        1,   590208, f9785b9b3f9a328c6a289494a0bbf1d0
0,        578,        578,        1,   590208, f9785b9b3f9a328c6a289494a0bbf1d0
0,        579,        579,        1,   590208, f9785b9b3f9a328c6a289494a0bbf1d0
0,        580,        580,        1,   590208, b39a82c0b956a1b1462603ae68e2e55c
0,        581,        581,        1,   590208, f9785b9b3f9a328c6a289494a0bbf1d0
0,        582,        582,        1,   590208, f9785b9b3f9a328c6a289494a0bbf1d0
0,        583,        583,        1,   590208, f9785b9b3f9a328c6a289494a0bbf1d0
0,        584,        584,        1,   590208, 261b72214f65329f2f28282931893d34
0,        585,        585,        1,   590208, f9785b9b3f9a328c6a289494a0bbf1d0
0,        586,        586,        1,   590208, f9785b9b3f9a328c6a289494a0bbf1d0
0,        587,        587,        1,   590208, f9785b9b3f9a328c6a289494a0bbf1d0
0,        588,        588,        1,   590208, b39a82c0b956a1b1462603ae68e2e55c
0,        589,        589,        1,   590208, f9785b9b3f9a328c6a289494a0bbf1d0
0,        590,        590,        1,   590208, f9785b9b3f9a328c6a289494a0bbf1d0
0,        591,        591,        1,   590208, f9785b9b3f9a328c6a289494a0bbf1d0
0,        592,        592,        1,   590208, 261b72214f65329f2f28282931893d34
0,        593,        593,        1,   590208, f9785b9b3f9a328c6a289494a0bbf1d0
0,        594,        594,        1,   590208, f9785b9b3f9a328c6a289494a0bbf1d0
0,        595,        595,        1,   590208, f9785b9b3f9a328c6a289494a0bbf1d0
0,        596,        596,        1,   590208, b39a82c0b956a1b1462603ae68e2e55c
0,        597,        597,        1,   590208, f9785b9b3f9a328c6a289494a0bbf1d0
0,        598,        598,        1,   590208, f9785b9b3f9a328c6a289494a0bbf1d0
0,        599,        599,        1,   590208, f9785b9b3f9a328c6a289494a0bbf1d0
0,        600,        600,        1,   590208, 261b72214f65329f2f28282931893d34
0,        601,        601,        1,   590208, f9785b9b3f9a328c6a289494a0bbf1d0
0,        602,        602,        1,   590208, f9785b9b3f9a328c6a289494a0bbf1d0
0,        603,        603,        1,   590208, f9785b9b3f9a328c6a289494a0bbf1d0
0,        604,        604,        1,   590208, b39a82c0b956a1b1462603ae68e2e55c
0,        605,        605,        1,   590208, f9785b9b3f9a328c6a289494a0bbf1d0
0,        606,        606,        1,   590208, f9785b9b3f9a328c6a289494a0bbf1d0
0,        607,        607,        1,   590208, f9785b9b3f9a328c6a289494a0bbf1d0
0,        608,        608,        1,   590208, 261b72214f65329f2f28282931893d34
0,        609,        609,        1,   590208, f9785b9b3f9a328c6a289494a0bbf1d0
0,        610,        610,        1,   590208, f9785b9b3f9a328c6a289494a0bbf1d0
0,        611,        611,        1,   590208, f9785b9b3f9a328c6a289494a0bbf1d0
0,        612,        612,        1,   590208, b39a82c0b956a1b1462603ae68e2e55c
0,        613,        613,        1,   590208, f9785b9b3f9a328c6a289494a0bbf1d0
0,        614,        614,        1,   590208, f9785b9b3f9a328c6a289494a0bbf1d0
0,        615,        615,        1,   590208, f9785b9b3f9a328c6a289494a0bbf1d0
0,        616,        616,        1,   590208, 261b72214f65329f2f28282931893d34
0,        617,        617,        1,   590208, f9785b9b3f9a328c6a289494a0bbf1d0
0,        618,        618,        1,   590208, f9785b9b3f9a328c6a289494a0bbf1d0
0,        619,        619,        1,   590208, f9785b9b3f9a328c6a289494a0bbf1d0
0,        620,        620,        1,   590208, b39a82c0b956a1b1462603ae68e2e55c
0,        621,        621,        1,   590208, f9785b9b3f9a328c6a289494a0bbf1d0
0,        622,        622,        1,   590208, f9785b9b3f9a328c6a289494a0bbf1d0
0,        623,        623,        1,   590208, f9785b9b3f9a328c6a289494a0bbf1d0
0,        624,        624,        1,   590208, 261b72214f65329f2f28282931893d34
0,        625,        625,        1,   590208, f9785b9b3f9a328c6a289494a0bbf1d0
0,        626,        626,        1,   590208, f9785b9b3f9a328c6a289494a0bbf1d0
0,        627,        627,        1,   590208, f9785b9b3f9a328c6a289494a0bbf1d0
0,        628,        628,        1,   590208, b39a82c0b956a1b1462603ae68e2e55c
0,        629,        629,        1,   590208, f9785b9b3f9a328c6a289494a0bbf1d0
0,        630,        630,        1,   590208, f9785b9b3f9a328c6a289494a0bbf1d0
0,        631,        631,        1,   590208, f9785b9b3f9a328c6a289494a0bbf1d0
0,        632,        632,        1,   590208, 261b72214f65329f2f28282931893d34
0,        633,        633,        1,   590208, f9785b9b3f9a328c6a289494a0bbf1d0
0,        634,        634,        1,   590208, f9785b9b3f9a328c6a289494a0bbf1d0
0,        635,        635,        1,   590208, f9785b9b3f9a328c6a289494a0bbf1d0
0,        636,        636,        1,   590208, b39a82c0b956a1b1462603ae68e2e55c
0,        637,        637,        1,   590208, f9785b9b3f9a328c6a289494a0bbf1d0
0,        638,        638,        1,   590208, f9785b9b3f9a328c6a289494a0bbf1d0
0,        639,        639,        1,   590208, f9785b9b3f9a328c6a289494a0bbf1d0
0,        640,        640,        1,   590208, 261b72214f65329f2f28282931893d34
0,        641,        641,        1,   590208, f9785b9b3f9a328c6a289494a0bbf1d0
0,        642,        642,        1,   590208, f9785b9b3f9a328c6a289494a0bbf1d0
0,        643,        643,        1,   590208, f9785b9b3f9a328c6a289494a0bbf1d0
0,        644,        644,        1,   590208, b39a82c0b956a1b1462603ae68e2e55c
0,        645,        645,        1,   590208, f9785b9b3f9a328c6a289494a0bbf1d0
0,        646,        646,        1,   590208, f9785b9b3f9a328c6a289494a0bbf1d0
0,        647,        647,        1,   590208, f9785b9b3f9a328c6a289494a0bbf1d0
0,        648,        648,        1,   590208, 261b72214f65329f2f28282931893d34
0,        649,        649,        1,   590208, f9785b9b3f9a328c6a289494a0bbf1d0
0,        650,        650,        1,   590208, f9785b9b3f9a328c6a289494a0bbf1d0
0,        651,        651,        1,   590208, f9785b9b3f9a328c6a289494a0bbf1d0
0,        652,        652,        1,   590208, b39a82c0b956a1b1462603ae68e2e55c
0,        653,        653,        1,   590208, f9785b9b3f9a328c6a289494a0bbf1d0
0,        654,        654,        1,   590208, f9785b9b3f9a328c6a289494a0bbf1d0
0,        655,        655,        1,   590208, f9785b9b3f9a328c6a289494a0bbf1d0
0,        656,        656,        1,   590208, 261b72214f65329f2f28282931893d34
0,        657,        657,        1,   590208, f9785b9b3f9a328c6a289494a0bbf1d0
0,        658,        658,        1,   590208, f9785b9b3f9a328c6a289494a0bbf1d0
0,        659,        659,        1,   590208, f9785b9b3f9a328c6a289494a0bbf1d0
0,        660,        660,        1,   590208, b39a82c0b956a1b1462603ae68e2e55c
0,        661,        661,        1,   590208, f9785b9b3f9a328c6a289494a0bbf1d0
0,        662,        662,        1,   590208, f9785b9b3f9a328c6a289494a0bbf1d0
0,        663,        663,        1,   590208, f9785b9b3f9a328c6a289494a0bbf1d0
0,        664,        664,        1,   590208, 261b72214f65329f2f28282931893d34
0,        665,        665,        1,   590208, f9785b9b3f9a328c6a289494a0bbf1d0
0,        666,        666,        1,   590208, f9785b9b3f9a328c6a289494a0bbf1d0
0,        667,        667,        1,   590208, f9785b9b3f9a328c6a289494a0bbf1d0
0,        668,        668,        1,   590208, b39a82c0b956a1b1462603ae68e2e55c
0,        669,        669,        1,   590208, f9785b9b3f9a328c6a289494a0bbf1d0
0,        670,        670,        1,   590208, f9785b9b3f9a328c6a289494a0bbf1d0
0,        671,        671,        1,   590208, f9785b9b3f9a328c6a289494a0bbf1d0
0,        672,        672,        1,   590208, 261b72214f65329f2f28282931893d34
0,        673,        673,        1,   590208, f9785b9b3f9a328c6a289494a0bbf1d0
0,        674,        674,        1,   590208, f9785b9b3f9a328c6a289494a0bbf1d0
0,        675,        675,        1,   590208, f9785b9b3f9a328c6a289494a0bbf1d0
0,        676,        676,        1,   590208, b39a82c0b956a1b1462603ae68e2e55c
0,        677,        677,        1,   590208, f9785b9b3f9a328c6a289494a0bbf1d0
0,        678,        678,        1,   590208, f9785b9b3f9a328c6a289494a0bbf1d0
0,        679,        679,        1,   590208, f9785b9b3f9a328c6a289494a0bbf1d0
0,        680,        680,        1,   590208, 261b72214f65329f2f28282931893d34
0,        681,        681,        1,   590208, f9785b9b3f9a328c6a289494a0bbf1d0
0,        682,        682,        1,   590208, f9785b9b3f9a328c6a289494a0bbf1d0
0,        683,        683,        1,   590208, f9785b9b3f9a328c6a289494a0bbf1d0
0,        684,        684,        1,   590208, b39a82c0b956a1b1462603ae68e2e55c
0,        685,        685,        1,   590208, f9785b9b3f9a328c6a289494a0bbf1d0
0,        686,        686,        1,   590208, f9785b9b3f9a328c6a289494a0bbf1d0
0,        687,        687,        1,   590208, f9785b9b3f9a328c6a289494a0bbf1d0
0,        688,        688,        1,   590208, 261b72214f65329f2f28282931893d34
0,        689,        689,        1,   590208, f9785b9b3f9a328c6a289494a0bbf1d0
0,        690,        690,        1,   590208, f9785b9b3f9a328c6a289494a0bbf1d0
0,        691,        691,        1,   590208, f9785b9b3f9a328c6a289494a0bbf1d0
0,        692,        692,        1,   590208, b39a82c0b956a1b1462603ae68e2e55c
0,        693,        693,        1,   590208, f9785b9b3f9a328c6a289494a0bbf1d0
0,        694,        694,        1,   590208, f9785b9b3f9a328c6a289494a0bbf1d0
0,        695,        695,        1,   590208, f9785b9b3f9a328c6a289494a0bbf1d0
0,        696,        696,        1,   590208, 261b72214f65329f2f28282931893d34
0,        697,        697,        1,   590208, f9785b9b3f9a328c6a289494a0bbf1d0
0,        698,        698,        1,   590208, f9785b9b3f9a328c6a289494a0bbf1d0
0,        699,        699,        1,   590208, f9785b9b3f9a328c6a289494a0bbf1d0
0,        700,        700,        1,   590208, b39a82c0b956a1b1462603ae68e2e55c
0,        701,        701,        1,   590208, f9785b9b3f9a328c6a289494a0bbf1d0
0,        702,        702,        1,   590208, f9785b9b3f9a328c6a289494a0bbf1d0
0,        703,        703,        1,   590208, f9785b9b3f9a328c6a289494a0bbf1d0
0,        704,        704,        1,   590208, 261b72214f65329f2f28282931893d34
0,        705,        705,        1,   590208, f9785b9b3f9a328c6a289494a0bbf1d0
0,        706,        706,        1,   590208, f9785b9b3f9a328c6a289494a0bbf1d0
0,        707,        707,        1,   590208, f9785b9b3f9a328c6a289494a0bbf1d0
0,        708,        708,        1,   590208, b39a82c0b956a1b1462603ae68e2e55c
0,        709,        709,        1,   590208, f9785b9b3f9a328c6a289494a0bbf1d0
0,        710,        710,        1,   590208, f9785b9b3f9a328c6a289494a0bbf1d0
0,        711,        711,        1,   590208, f9785b9b3f9a328c6a289494a0bbf1d0
0,        712,        712,        1,   590208, 261b72214f65329f2f28282931893d34
0,        713,        713,        1,   590208, f9785b9b3f9a328c6a289494a0bbf1d0
0,        714,        714,        1,   590208, f9785b9b3f9a328c6a289494a0bbf1d0
0,        715,        715,        1,   590208, f9785b9b3f9a328c6a289494a0bbf1d0
0,        716,        716,        1,   590208, b39a82c0b956a1b1462603ae68e2e55c
0,        717,        717,        1,   590208, f9785b9b3f9a328c6a289494a0bbf1d0
0,        718,        718,        1,   590208, f9785b9b3f9a328c6a289494a0bbf1d0
0,        719,        719,        1,   590208, f9785b9b3f9a328c6a289494a0bbf1d0
0,        720,        720,        1,   590208, 261b72214f65329f2f28282931893d34
0,        721,        721,        1,   590208, f9785b9b3f9a328c6a289494a0bbf1d0
0,        722,        722,        1,   590208, f9785b9b3f9a328c6a289494a0bbf1d0
0,        723,        723,        1,   590208, f9785b9b3f9a328c6a289494a0bbf1d0
0,        724,        724,        1,   590208, b39a82c0b956a1b1462603ae68e2e55c
0,        725,        725,        1,   590208, f9785b9b3f9a328c6a289494a0bbf1d0
0,        726,        726,        1,   590208, f9785b9b3f9a328c6a289494a0bbf1d0
0,        727,        727,        1,   590208, f9785b9b3f9a328c6a289494a0bbf1d0
0,        728,        728,        1,   590208, 261b72214f65329f2f28282931893d34
0,        729,        729,        1,   590208, f9785b9b3f9a328c6a289494a0bbf1d0
0,        730,        730,        1,   590208, f9785b9b3f9a328c6a289494a0bbf1d0
0,        731,        731,        1,   590208, f9785b9b3f9a328c6a289494a0bbf1d0
0,        732,        732,        1,   590208, b39a82c0b956a1b1462603ae68e2e55c
0,        733,        733,        1,   590208, f9785b9b3f9a328c6a289494a0bbf1d0
0,        734,        734,        1,   590208, f9785b9b3f9a328c6a289494a0bbf1d0
0,        735,        735,        1,   590208, f9785b9b3f9a328c6a289494a0bbf1d0
0,        736,        736,        1,   590208, 261b72214f65329f2f28282931893d34
0,        737,        737,        1,   590208, f9785b9b3f9a328c6a289494a0bbf1d0
0,        738,        738,        1,   590208, f9785b9b3f9a328c6a289494a0bbf1d0
0,        739,        739,        1,   590208, f9785b9b3f9a328c6a289494a0bbf1d0
0,        740,        740,        1,   590208, b39a82c0b956a1b1462603ae68e2e55c
0,        741,        741,        1,   590208, f9785b9b3f9a328c6a289494a0bbf1d0
0,        742,        742,        1,   590208, f9785b9b3f9a328c6a289494a0bbf1d0
0,        743,        743,        1,   590208, f9785b9b3f9a328c6a289494a0bbf1d0
0,        744,        744,        1,   590208, 261b72214f65329f2f28282931893d34
0,        745,        745,        1,   590208, f9785b9b3f9a328c6a289494a0bbf1d0
0,        746,        746,        1,   590208, f9785b9b3f9a328c6a289494a0bbf1d0
0,        747,        747,        1,   590208, f9785b9b3f9a328c6a289494a0bbf1d0
0,        748,        748,        1,   590208, b39a82c0b956a1b1462603ae68e2e55c
0,        749,        749,        1,   590208, f9785b9b3f9a328c6a289494a0bbf1d0
0,        750,        750,        1,   590208, f9785b9b3f9a328c6a289494a0bbf1d0
0,        751,        751,        1,   590208, f9785b9b3f9a328c6a289494a0bbf1d0
0,        752,        752,        1,   590208, 261b72214f65329f2f28282931893d34
0,        753,        753,        1,   590208, f9785b9b3f9a328c6a289494a0bbf1d0
0,        754,        754,        1,   590208, f9785b9b3f9a328c6a289494a0bbf1d0
0,        755,        755,        1,   590208, f9785b9b3f9a328c6a289494a0bbf1d0
0,        756,        756,        1,   590208, b39a82c0b956a1b1462603ae68e2e55c
0,        757,        757,        1,   590208, f9785b9b3f9a328c6a289494a0bbf1d0
0,        758,        758,        1,   590208, f9785b9b3f9a328c6a289494a0bbf1d0
0,        759,        759,        1,   590208, f9785b9b3f9a328c6a289494a0bbf1d0
0,        760,        760,        1,   590208, 261b72214f65329f2f28282931893d34
0,        761,        761,        1,   590208, f9785b9b3f9a328c6a289494a0bbf1d0
0,        762,        762,        1,   590208, f9785b9b3f9a328c6a289494a0bbf1d0
0,        763,        763,        1,   590208, f9785b9b3f9a328c6a289494a0bbf1d0
0,        764,        764,        1,   590208, b39a82c0b956a1b1462603ae68e2e55c
0,        765,        765,        1,   590208, f9785b9b3f9a328c6a289494a0bbf1d0
0,        766,        766,        1,   590208, f9785b9b3f9a328c6a289494a0bbf1d0
0,        767,        767,        1,   590208, f9785b9b3f9a328c6a289494a0bbf1d0
0,        768,        768,        1,   590208, 261b72214f65329f2f28282931893d34
0,        769,        769,        1,   590208, f9785b9b3f9a328c6a289494a0bbf1d0
0,        770,        770,        1,   590208, f9785b9b3f9a328c6a289494a0bbf1d0
0,        771,        771,        1,   590208, f9785b9b3f9a328c6a289494a0bbf1d0
0,        772,        772,        1,   590208, b39a82c0b956a1b1462603ae68e2e55c
0,        773,        773,        1,   590208, f9785b9b3f9a328c6a289494a0bbf1d0
0,        774,        774,        1,   590208, f9785b9b3f9a328c6a289494a0bbf1d0
0,        775,        775,        1,   590208, f9785b9b3f9a328c6a289494a0bbf1d0
0,        776,        776,        1,   590208, 261b72214f65329f2f28282931893d34
0,        777,        777,        1,   590208, f9785b9b3f9a328c6a289494a0bbf1d0
0,        778,        778,        1,   590208, f9785b9b3f9a328c6a289494a0bbf1d0
0,        779,        779,        1,   590208, f9785b9b3f9a328c6a289494a0bbf1d0
0,        780,        780,        1,   590208, b39a82c0b956a1b1462603ae68e2e55c
0,        781,        781,        1,   590208, f9785b9b3f9a328c6a289494a0bbf1d0
0,        782,        782,        1,   590208, f9785b9b3f9a328c6a289494a0bbf1d0
0,        783,        783,        1,   590208, f9785b9b3f9a328c6a289494a0bbf1d0
0,        784,        784,        1,   590208, 261b72214f65329f2f28282931893d34
0,        785,        785,        1,   590208, 261b72214f65329f2f28282931893d34
0,        786,        786,        1,   590208, 3fbb055774cc9a638a653fece0be2c45
0,        787,        787,        1,   590208, c9de792f4e26d1d2ed89d9fa17cdf297
0,        788,        788,        1,   590208, c9de792f4e26d1d2ed89d9fa17cdf297
0,        789,        789,        1,   590208, c9de792f4e26d1d2ed89d9fa17cdf297
0,        790,        790,        1,   590208, 62ab78e1b037064fff0913f1b031979a
0,        791,        791,        1,   590208, 2f78b3bbf9866cef066b0997f496344b
0,        792,        792,        1,   590208, 7b15c1f881f08d4dcde850e074809e3a
0,        793,        793,        1,   590208, 6d782125950e6bd95ccd7c95ccce3563
0,        794,        794,        1,   590208, 261b72214f65329f2f28282931893d34
0,        795,        795,        1,   590208, f9785b9b3f9a328c6a289494a0bbf1d0
0,        796,        796,        1,   590208, f9785b9b3f9a328c6a289494a0bbf1d0
0,        797,        797,        1,   590208, f9785b9b3f9a328c6a289494a0bbf1d0
0,        798,        798,        1,   590208, b39a82c0b956a1b1462603ae68e2e55c
0,        799,        799,        1,   590208, f9785b9b3f9a328c6a289494a0bbf1d0
0,        800,        800,        1,   590208, f9785b9b3f9a328c6a289494a0bbf1d0
0,        801,        801,        1,   590208, f9785b9b3f9a328c6a289494a0bbf1d0
0,        802,        802,        1,   590208, 261b72214f65329f2f28282931893d34
0,        803,        803,        1,   590208, f9785b9b3f9a328c6a289494a0bbf1d0
0,        804,        804,        1,   590208, f9785b9b3f9a328c6a289494a0bbf1d0
0,        805,        805,        1,   590208, f9785b9b3f9a328c6a289494a0bbf1d0
0,        806,        806,        1,   590208, b39a82c0b956a1b1462603ae68e2e55c
0,        807,        807,        1,   590208, f9785b9b3f9a328c6a289494a0bbf1d0
0,        808,        808,        1,   590208, f9785b9b3f9a328c6a289494a0bbf1d0
0,        809,        809,        1,   590208, f9785b9b3f9a328c6a289494a0bbf1d0
0,        810,        810,        1,   590208, 261b72214f65329f2f28282931893d34
0,        811,        811,        1,   590208, f9785b9b3f9a328c6a289494a0bbf1d0
0,        812,        812,        1,   590208, f9785b9b3f9a328c6a289494a0bbf1d0
0,        813,        813,        1,   590208, f9785b9b3f9a328c6a289494a0bbf1d0
0,        814,        814,        1,   590208, b39a82c0b956a1b1462603ae68e2e55c
0,        815,        815,        1,   590208, f9785b9b3f9a328c6a289494a0bbf1d0
0,        816,        816,        1,   590208, f9785b9b3f9a328c6a289494a0bbf1d0
0,        817,        817,        1,   590208, f9785b9b3f9a328c6a289494a0bbf1d0
0,        818,        818,        1,   590208, 261b72214f65329f2f28282931893d34
0,        819,        819,        1,   590208, f9785b9b3f9a328c6a289494a0bbf1d0
0,        820,        820,        1,   590208, f9785b9b3f9a328c6a289494a0bbf1d0
0,        821,        821,        1,   590208, f9785b9b3f9a328c6a289494a0bbf1d0
0,        822,        822,        1,   590208, b39a82c0b956a1b1462603ae68e2e55c
0,        823,        823,        1,   590208, f9785b9b3f9a328c6a289494a0bbf1d0
0,        824,        824,        1,   590208, f9785b9b3f9a328c6a289494a0bbf1d0
0,        825,        825,        1,   590208, f9785b9b3f9a328c6a289494a0bbf1d0
0,        826,        826,        1,   590208, 261b72214f65329f2f28282931893d34
0,        827,        827,        1,   590208, f9785b9b3f9a328c6a289494a0bbf1d0
0,        828,        828,        1,   590208, f9785b9b3f9a328c6a289494a0bbf1d0
0,        829,        829,        1,   590208, f9785b9b3f9a328c6a289494a0bbf1d0
0,        830,        830,        1,   590208, b39a82c0b956a1b1462603ae68e2e55c
0,        831,        831,        1,   590208, f9785b9b3f9a328c6a289494a0bbf1d0
0,        832,        832,        1,   590208, f9785b9b3f9a328c6a289494a0bbf1d0
0,        833,        833,        1,   590208, f9785b9b3f9a328c6a289494a0bbf1d0
0,        834,        834,        1,   590208, 261b72214f65329f2f28282931893d34
0,        835,        835,        1,   590208, f9785b9b3f9a328c6a289494a0bbf1d0
0,        836,        836,        1,   590208, f9785b9b3f9a328c6a289494a0bbf1d0
0,        837,        837,        1,   590208, f9785b9b3f9a328c6a289494a0bbf1d0
0,        838,        838,        1,   590208, b39a82c0b956a1b1462603ae68e2e55c
0,        839,        839,        1,   590208, f9785b9b3f9a328c6a289494a0bbf1d0
0,        840,        840,        1,   590208, f9785b9b3f9a328c6a289494a0bbf1d0
0,        841,        841,        1,   590208, f9785b9b3f9a328c6a289494a0bbf1d0
0,        842,        842,        1,   590208, 261b72214f65329f2f28282931893d34
0,        843,        843,        1,   590208, f9785b9b3f9a328c6a289494a0bbf1d0
0,        844,        844,        1,   590208, f9785b9b3f9a328c6a289494a0bbf1d0
0,        845,        845,        1,   590208, f9785b9b3f9a328c6a289494a0bbf1d0
0,        846,        846,        1,   590208, b39a82c0b956a1b1462603ae68e2e55c
0,        847,        847,        1,   590208, f9785b9b3f9a328c6a289494a0bbf1d0
0,        848,        848,        1,   590208, f9785b9b3f9a328c6a289494a0bbf1d0
0,        849,        849,        1,   590208, f9785b9b3f9a328c6a289494a0bbf1d0
0,        850,        850,        1,   590208, 261b72214f65329f2f28282931893d34
0,        851,        851,        1,   590208, f9785b9b3f9a328c6a289494a0bbf1d0
0,        852,        852,        1,   590208, f9785b9b3f9a328c6a289494a0bbf1d0
0,        853,        853,        1,   590208, f9785b9b3f9a328c6a289494a0bbf1d0
0,        854,        854,        1,   590208, b39a82c0b956a1b1462603ae68e2e55c
0,        855,        855,        1,   590208, f9785b9b3f9a328c6a289494a0bbf1d0
0,        856,        856,        1,   590208, f9785b9b3f9a328c6a289494a0bbf1d0
0,        857,        857,        1,   590208, f9785b9b3f9a328c6a289494a0bbf1d0
0,        858,        858,        1,   590208, 261b72214f65329f2f28282931893d34
0,        859,        859,        1,   590208, f9785b9b3f9a328c6a289494a0bbf1d0
0,        860,        860,        1,   590208, f9785b9b3f9a328c6a289494a0bbf1d0
0,        861,        861,        1,   590208, f9785b9b3f9a328c6a289494a0bbf1d0
0,        862,        862,        1,   590208, b39a82c0b956a1b1462603ae68e2e55c
0,        863,        863,        1,   590208, f9785b9b3f9a328c6a289494a0bbf1d0
0,        864,        864,        1,   590208, f9785b9b3f9a328c6a289494a0bbf1d0
0,        865,        865,        1,   590208, f9785b9b3f9a328c6a289494a0bbf1d0
0,        866,        866,        1,   590208, 261b72214f65329f2f28282931893d34
0,        867,        867,        1,   590208, f9785b9b3f9a328c6a289494a0bbf1d0
0,        868,        868,        1,   590208, f9785b9b3f9a328c6a289494a0bbf1d0
0,        869,        869,        1,   590208, f9785b9b3f9a328c6a289494a0bbf1d0
0,        870,        870,        1,   590208, b39a82c0b956a1b1462603ae68e2e55c
0,        871,        871,        1,   590208, f9785b9b3f9a328c6a289494a0bbf1d0
0,        872,        872,        1,   590208, f9785b9b3f9a328c6a289494a0bbf1d0
0,        873,        873,        1,   590208, f9785b9b3f9a328c6a289494a0bbf1d0
0,        874,        874,        1,   590208, 261b72214f65329f2f28282931893d34
0,        875,        875,        1,   590208, f9785b9b3f9a328c6a289494a0bbf1d0
0,        876,        876,        1,   590208, f9785b9b3f9a328c6a289494a0bbf1d0
0,        877,        877,        1,   590208, f9785b9b3f9a328c6a289494a0bbf1d0
0,        878,        878,        1,   590208, b39a82c0b956a1b1462603ae68e2e55c
0,        879,        879,        1,   590208, f9785b9b3f9a328c6a289494a0bbf1d0
0,        880,        880,        1,   590208, f9785b9b3f9a328c6a289494a0bbf1d0
0,        881,        881,        1,   590208, f9785b9b3f9a328c6a289494a0bbf1d0
0,        882,        882,        1,   590208, 261b72214f65329f2f28282931893d34
0,        883,        883,        1,   590208, f9785b9b3f9a328c6a289494a0bbf1d0
0,        884,        884,        1,   590208, f9785b9b3f9a328c6a289494a0bbf1d0
0,        885,        885,        1,   590208, f9785b9b3f9a328c6a289494a0bbf1d0
0,        886,        886,        1,   590208, b39a82c0b956a1b1462603ae68e2e55c
0,        887,        887,        1,   590208, f9785b9b3f9a328c6a289494a0bbf1d0
0,        888,        888,        1,   590208, f9785b9b3f9a328c6a289494a0bbf1d0
0,        889,        889,        1,   590208, f9785b9b3f9a328c6a289494a0bbf1d0
0,        890,        890,        1,   590208, 261b72214f65329f2f28282931893d34
0,        891,        891,        1,   590208, f9785b9b3f9a328c6a289494a0bbf1d0
0,        892,        892,        1,   590208, f9785b9b3f9a328c6a289494a0bbf1d0
0,        893,        893,        1,   590208, f9785b9b3f9a328c6a289494a0bbf1d0
0,        894,        894,        1,   590208, b39a82c0b956a1b1462603ae68e2e55c
0,        895,        895,        1,   590208, f9785b9b3f9a328c6a289494a0bbf1d0
0,        896,        896,        1,   590208, f9785b9b3f9a328c6a289494a0bbf1d0
0,        897,        897,        1,   590208, f9785b9b3f9a328c6a289494a0bbf1d0
0,        898,        898,        1,   590208, 261b72214f65329f2f28282931893d34
0,        899,        899,        1,   590208, f9785b9b3f9a328c6a289494a0bbf1d0
0,        900,        900,        1,   590208, f9785b9b3f9a328c6a289494a0bbf1d0
0,        901,        901,        1,   590208, f9785b9b3f9a328c6a289494a0bbf1d0
0,        902,        902,        1,   590208, b39a82c0b956a1b1462603ae68e2e55c
0,        903,        903,        1,   590208, f9785b9b3f9a328c6a289494a0bbf1d0
0,        904,        904,        1,   590208, f9785b9b3f9a328c6a289494a0bbf1d0
0,        905,        905,        1,   590208, f9785b9b3f9a328c6a289494a0bbf1d0
0,        906,        906,        1,   590208, 261b72214f65329f2f28282931893d34
0,        907,        907,        1,   590208, f9785b9b3f9a328c6a289494a0bbf1d0
0,        908,        908,        1,   590208, f9785b9b3f9a328c6a289494a0bbf1d0
0,        909,        909,        1,   590208, f9785b9b3f9a328c6a289494a0bbf1d0
0,        910,        910,        1,   590208, b39a82c0b956a1b1462603ae68e2e55c
0,        911,        911,        1,   590208, f9785b9b3f9a328c6a289494a0bbf1d0
0,        912,        912,        1,   590208, f9785b9b3f9a328c6a289494a0bbf1d0
0,        913,        913,        1,   590208, f9785b9b3f9a328c6a289494a0bbf1d0
0,        914,        914,        1,   590208, 261b72214f65329f2f28282931893d34
0,        915,        915,        1,   590208, f9785b9b3f9a328c6a289494a0bbf1d0
0,        916,        916,        1,   590208, f9785b9b3f9a328c6a289494a0bbf1d0
0,        917,        917,        1,   590208, f9785b9b3f9a328c6a289494a0bbf1d0
0,        918,        918,        1,   590208, b39a82c0b956a1b1462603ae68e2e55c
0,        919,        919,        1,   590208, f9785b9b3f9a328c6a289494a0bbf1d0
0,        920,        920,        1,   590208, f9785b9b3f9a328c6a289494a0bbf1d0
0,        921,        921,        1,   590208, f9785b9b3f9a328c6a289494a0bbf1d0
0,        922,        922,        1,   590208, 261b72214f65329f2f28282931893d34
0,        923,        923,        1,   590208, f9785b9b3f9a328c6a289494a0bbf1d0
0,        924,        924,        1,   590208, f9785b9b3f9a328c6a289494a0bbf1d0
0,        925,        925,        1,   590208, f9785b9b3f9a328c6a289494a0bbf1d0
0,        926,        926,        1,   590208, b39a82c0b956a1b1462603ae68e2e55c
0,        927,        927,        1,   590208, f9785b9b3f9a328c6a289494a0bbf1d0
0,        928,        928,        1,   590208, f9785b9b3f9a328c6a289494a0bbf1d0
0,        929,        929,        1,   590208, f9785b9b3f9a328c6a289494a0bbf1d0
0,        930,        930,        1,   590208, 261b72214f65329f2f28282931893d34
0,        931,        931,        1,   590208, f9785b9b3f9a328c6a289494a0bbf1d0
0,        932,        932,        1,   590208, f9785b9b3f9a328c6a289494a0bbf1d0
0,        933,        933,        1,   590208, f9785b9b3f9a328c6a289494a0bbf1d0
0,        934,        934,        1,   590208, b39a82c0b956a1b1462603ae68e2e55c
0,        935,        935,        1,   590208, f9785b9b3f9a328c6a289494a0bbf1d0
0,        936,        936,        1,   590208, f9785b9b3f9a328c6a289494a0bbf1d0
0,        937,        937,        1,   590208, f9785b9b3f9a328c6a289494a0bbf1d0
0,        938,        938,        1,   590208, 261b72214f65329f2f28282931893d34
0,        939,        939,        1,   590208, f9785b9b3f9a328c6a289494a0bbf1d0
0,        940,        940,        1,   590208, f9785b9b3f9a328c6a289494a0bbf1d0
0,        941,        941,        1,   590208, f9785b9b3f9a328c6a289494a0bbf1d0
0,        942,        942,        1,   590208, b39a82c0b956a1b1462603ae68e2e55c
0,        943,        943,        1,   590208, f9785b9b3f9a328c6a289494a0bbf1d0
0,        944,        944,        1,   590208, f9785b9b3f9a328c6a289494a0bbf1d0
0,        945,        945,        1,   590208, f9785b9b3f9a328c6a289494a0bbf1d0
0,        946,        946,        1,   590208, 261b72214f65329f2f28282931893d34
0,        947,        947,        1,   590208, f9785b9b3f9a328c6a289494a0bbf1d0
0,        948,        948,        1,   590208, f9785b9b3f9a328c6a289494a0bbf1d0
0,        949,        949,        1,   590208, f9785b9b3f9a328c6a289494a0bbf1d0
0,        950,        950,        1,   590208, b39a82c0b956a1b1462603ae68e2e55c
0,        951,        951,        1,   590208, f9785b9b3f9a328c6a289494a0bbf1d0
0,        952,        952,        1,   590208, f9785b9b3f9a328c6a289494a0bbf1d0
0,        953,        953,        1,   590208, f9785b9b3f9a328c6a289494a0bbf1d0
0,        954,        954,        1,   590208, 261b72214f65329f2f28282931893d34
0,        955,        955,        1,   590208, f9785b9b3f9a328c6a289494a0bbf1d0
0,        956,        956,        1,   590208, f9785b9b3f9a328c6a289494a0bbf1d0
0,        957,        957,        1,   590208, f9785b9b3f9a328c6a289494a0bbf1d0
0,        958,        958,        1,   590208, b39a82c0b956a1b1462603ae68e2e55c
0,        959,        959,        1,   590208, f9785b9b3f9a328c6a289494a0bbf1d0
0,        960,        960,        1,   590208, f9785b9b3f9a328c6a289494a0bbf1d0
0,        961,        961,        1,   590208, f9785b9b3f9a328c6a289494a0bbf1d0
0,        962,        962,        1,   590208, 261b72214f65329f2f28282931893d34
0,        963,        963,        1,   590208, f9785b9b3f9a328c6a289494a0bbf1d0
0,        964,        964,        1,   590208, f9785b9b3f9a328c6a289494a0bbf1d0
0,        965,        965,        1,   590208, f9785b9b3f9a328c6a289494a0bbf1d0
0,        966,        966,        1,   590208, b39a82c0b956a1b1462603ae68e2e55c
0,        967,        967,        1,   590208, f9785b9b3f9a328c6a289494a0bbf1d0
0,        968,        968,        1,   590208, f9785b9b3f9a328c6a289494a0bbf1d0
0,        969,        969,        1,   590208, f9785b9b3f9a328c6a289494a0bbf1d0
0,        970,        970,        1,   590208, 261b72214f65329f2f28282931893d34
0,        971,        971,        1,   590208, f9785b9b3f9a328c6a289494a0bbf1d0
0,        972,        972,        1,   590208, f9785b9b3f9a328c6a289494a0bbf1d0
0,        973,        973,        1,   590208, f9785b9b3f9a328c6a289494a0bbf1d0
0,        974,        974,        1,   590208, b39a82c0b956a1b1462603ae68e2e55c
0,        975,        975,        1,   590208, f9785b9b3f9a328c6a289494a0bbf1d0
0,        976,        976,        1,   590208, f9785b9b3f9a328c6a289494a0bbf1d0
0,        977,        977,        1,   590208, f9785b9b3f9a328c6a289494a0bbf1d0
0,        978,        978,        1,   590208, 261b72214f65329f2f28282931893d34
0,        979,        979,        1,   590208, f9785b9b3f9a328c6a289494a0bbf1d0
0,        980,        980,        1,   590208, f9785b9b3f9a328c6a289494a0bbf1d0
0,        981,        981,        1,   590208, f9785b9b3f9a328c6a289494a0bbf1d0
0,        982,        982,        1,   590208, b39a82c0b956a1b1462603ae68e2e55c
0,        983,        983,        1,   590208, f9785b9b3f9a328c6a289494a0bbf1d0
0,        984,        984,        1,   590208, f9785b9b3f9a328c6a289494a0bbf1d0
0,        985,        985,        1,   590208, f9785b9b3f9a328c6a289494a0bbf1d0
0,        986,        986,        1,   590208, 261b72214f65329f2f28282931893d34
0,        987,        987,        1,   590208, f9785b9b3f9a328c6a289494a0bbf1d0
0,        988,        988,        1,   590208, f9785b9b3f9a328c6a289494a0bbf1d0
0,        989,        989,        1,   590208, f9785b9b3f9a328c6a289494a0bbf1d0
0,        990,        990,        1,   590208, b39a82c0b956a1b1462603ae68e2e55c
0,        991,        991,        1,   590208, f9785b9b3f9a328c6a289494a0bbf1d0
0,        992,        992,        1,   590208, f9785b9b3f9a328c6a289494a0bbf1d0
0,        993,        993,        1,   590208, f9785b9b3f9a328c6a289494a0bbf1d0
0,        994,        994,        1,   590208, 261b72214f65329f2f28282931893d34
0,        995,        995,        1,   590208, f9785b9b3f9a328c6a289494a0bbf1d0
0,        996,        996,        1,   590208, f9785b9b3f9a328c6a289494a0bbf1d0
0,        997,        997,        1,   590208, f9785b9b3f9a328c6a289494a0bbf1d0
0,        998,        998,        1,   590208, b39a82c0b956a1b1462603ae68e2e55c
0,        999,        999,        1,   590208, f9785b9b3f9a328c6a289494a0bbf1d0
0,       1000,       1000,        1,   590208, f9785b9b3f9a328c6a289494a0bbf1d0
0,       1001,       1001,        1,   590208, f9785b9b3f9a328c6a289494a0bbf1d0
0,       1002,       1002,        1,   590208, 261b72214f65329f2f28282931893d34
0,       1003,       1003,        1,   590208, f9785b9b3f9a328c6a289494a0bbf1d0
0,       1004,       1004,        1,   590208, f9785b9b3f9a328c6a289494a0bbf1d0
0,       1005,       1005,        1,   590208, f9785b9b3f9a328c6a289494a0bbf1d0
0,       1006,       1006,        1,   590208, b39a82c0b956a1b1462603ae68e2e55c
0,       1007,       1007,        1,   590208, f9785b9b3f9a328c6a289494a0bbf1d0
0,       1008,       1008,        1,   590208, f9785b9b3f9a328c6a289494a0bbf1d0
0,       1009,       1009,        1,   590208, f9785b9b3f9a328c6a289494a0bbf1d0
0,       1010,       1010,        1,   590208, 261b72214f65329f2f28282931893d34
0,       1011,       1011,        1,   590208, f9785b9b3f9a328c6a289494a0bbf1d0
0,       1012,       1012,        1,   590208, f9785b9b3f9a328c6a289494a0bbf1d0
0,       1013,       1013,        1,   590208, f9785b9b3f9a328c6a289494a0bbf1d0
0,       1014,       1014,        1,   590208, b39a82c0b956a1b1462603ae68e2e55c
0,       1015,       1015,        1,   590208, f9785b9b3f9a328c6a289494a0bbf1d0
0,       1016,       1016,        1,   590208, f9785b9b3f9a328c6a289494a0bbf1d0
0,       1017,       1017,        1,   590208, f9785b9b3f9a328c6a289494a0bbf1d0
0,       1018,       1018,        1,   590208, 261b72214f65329f2f28282931893d34
0,       1019,       1019,        1,   590208, f9785b9b3f9a328c6a289494a0bbf1d0
0,       1020,       1020,        1,   590208, f9785b9b3f9a328c6a289494a0bbf1d0
0,       1021,       1021,        1,   590208, f9785b9b3f9a328c6a289494a0bbf1d0
0,       1022,       1022,        1,   590208, b39a82c0b956a1b1462603ae68e2e55c
0,       1023,       1023,        1,   590208, f9785b9b3f9a328c6a289494a0bbf1d0
0,       1024,       1024,        1,   590208, f9785b9b3f9a328c6a289494a0bbf1d0
0,       1025,       1025,        1,   590208, f9785b9b3f9a328c6a289494a0bbf1d0
0,       1026,       1026,        1,   590208, 261b72214f65329f2f28282931893d34
0,       1027,       1027,        1,   590208, f9785b9b3f9a328c6a289494a0bbf1d0
0,       1028,       1028,        1,   590208, f9785b9b3f9a328c6a289494a0bbf1d0
0,       1029,       1029,        1,   590208, f9785b9b3f9a328c6a289494a0bbf1d0
0,       1030,       1030,        1,   590208, b39a82c0b956a1b1462603ae68e2e55c
0,       1031,       1031,        1,   590208, f9785b9b3f9a328c6a289494a0bbf1d0
0,       1032,       1032,        1,   590208, f9785b9b3f9a328c6a289494a0bbf1d0
0,       1033,       1033,        1,   590208, f9785b9b3f9a328c6a289494a0bbf1d0
0,       1034,       1034,        1,   590208, 261b72214f65329f2f28282931893d34
0,       1035,       1035,        1,   590208, 261b72214f65329f2f28282931893d34
0,       1036,       1036,        1,   590208, 14999d3c70f32c7f1ce1568e9eb83cfb
0,       1037,       1037,        1,   590208, 85d770f5305b9c92719f481528425009
0,       1038,       1038,        1,   590208, 85d770f5305b9c92719f481528425009
0,       1039,       1039,        1,   590208, 85d770f5305b9c92719f481528425009
0,       1040,       1040,        1,   590208, 5b72db8d1a155284f4427d2bbe95854a
0,       1041,       1041,        1,   590208, 84d252aa8a14a5d64d1eae226674f9e2
0,       1042,       1042,        1,   590208, 62c58ad70796bfeeff9df4a0005491a9
0,       1043,       1043,        1,   590208, 470380be7f6810fff70cd5b7a4f59ac2
0,       1044,       1044,        1,   590208, 9ddef0ebcee777a83cade7fe856ad8b8
0,       1045,       1045,        1,   590208, ed010f8efbb644fd3d818964787448cc
0,       1046,       1046,        1,   590208, ed010f8efbb644fd3d818964787448cc
0,       1047,       1047,        1,   590208, ed010f8efbb644fd3d818964787448cc
0,       1048,       1048,        1,   590208, 2e15b0a8e8d0a0ad4f310eb28823491c
0,       1049,       1049,        1,   590208, ed010f8efbb644fd3d818964787448cc
0,       1050,       1050,        1,   590208, ed010f8efbb644fd3d818964787448cc
0,       1051,       1051,        1,   590208, ed010f8efbb644fd3d818964787448cc
0,       1052,       1052,        1,   590208, 9ddef0ebcee777a83cade7fe856ad8b8
0,       1053,       1053,        1,   590208, ed010f8efbb644fd3d818964787448cc
0,       1054,       1054,        1,   590208, ed010f8efbb644fd3d818964787448cc
0,       1055,       1055,        1,   590208, ed010f8efbb644fd3d818964787448cc
0,       1056,       1056,        1,   590208, 2e15b0a8e8d0a0ad4f310eb28823491c
0,       1057,       1057,        1,   590208, ed010f8efbb644fd3d818964787448cc
0,       1058,       1058,        1,   590208, ed010f8efbb644fd3d818964787448cc
0,       1059,       1059,        1,   590208, ed010f8efbb644fd3d818964787448cc
0,       1060,       1060,        1,   590208, 9ddef0ebcee777a83cade7fe856ad8b8
0,       1061,       1061,        1,   590208, ed010f8efbb644fd3d818964787448cc
0,       1062,       1062,        1,   590208, ed010f8efbb644fd3d818964787448cc
0,       1063,       1063,        1,   590208, ed010f8efbb644fd3d818964787448cc
0,       1064,       1064,        1,   590208, 2e15b0a8e8d0a0ad4f310eb28823491c
0,       1065,       1065,        1,   590208, ed010f8efbb644fd3d818964787448cc
0,       1066,       1066,        1,   590208, ed010f8efbb644fd3d818964787448cc
0,       1067,       1067,        1,   590208, ed010f8efbb644fd3d818964787448cc
0,       1068,       1068,        1,   590208, 9ddef0ebcee777a83cade7fe856ad8b8
0,       1069,       1069,        1,   590208, ed010f8efbb644fd3d818964787448cc
0,       1070,       1070,        1,   590208, ed010f8efbb644fd3d818964787448cc
0,       1071,       1071,        1,   590208, ed010f8efbb644fd3d818964787448cc
0,       1072,       1072,        1,   590208, 2e15b0a8e8d0a0ad4f310eb28823491c
0,       1073,       1073,        1,   590208, ed010f8efbb644fd3d818964787448cc
0,       1074,       1074,        1,   590208, ed010f8efbb644fd3d818964787448cc
0,       1075,       1075,        1,   590208, ed010f8efbb644fd3d818964787448cc
0,       1076,       1076,        1,   590208, 9ddef0ebcee777a83cade7fe856ad8b8
0,       1077,       1077,        1,   590208, ed010f8efbb644fd3d818964787448cc
0,       1078,       1078,        1,   590208, ed010f8efbb644fd3d818964787448cc
0,       1079,       1079,        1,   590208, ed010f8efbb644fd3d818964787448cc
0,       1080,       1080,        1,   590208, 2e15b0a8e8d0a0ad4f310eb28823491c
0,       1081,       1081,        1,   590208, ed010f8efbb644fd3d818964787448cc
0,       1082,       1082,        1,   590208, ed010f8efbb644fd3d818964787448cc
0,       1083,       1083,        1,   590208, ed010f8efbb644fd3d818964787448cc
0,       1084,       1084,        1,   590208, 9ddef0ebcee777a83cade7fe856ad8b8
0,       1085,       1085,        1,   590208, ed010f8efbb644fd3d818964787448cc
0,       1086,       1086,        1,   590208, ed010f8efbb644fd3d818964787448cc
0,       1087,       1087,        1,   590208, ed010f8efbb644fd3d818964787448cc
0,       1088,       1088,        1,   590208, 2e15b0a8e8d0a0ad4f310eb28823491c
0,       1089,       1089,        1,   590208, ed010f8efbb644fd3d818964787448cc
0,       1090,       1090,        1,   590208, ed010f8efbb644fd3d818964787448cc
0,       1091,       1091,        1,   590208, ed010f8efbb644fd3d818964787448cc
0,       1092,       1092,        1,   590208, 9ddef0ebcee777a83cade7fe856ad8b8
0,       1093,       1093,        1,   590208, ed010f8efbb644fd3d818964787448cc
0,       1094,       1094,        1,   590208, ed010f8efbb644fd3d818964787448cc
0,       1095,       1095,        1,   590208, ed010f8efbb644fd3d818964787448cc
0,       1096,       1096,        1,   590208, 2e15b0a8e8d0a0ad4f310eb28823491c
0,       1097,       1097,        1,   590208, ed010f8efbb644fd3d818964787448cc
0,       1098,       1098,        1,   590208, ed010f8efbb644fd3d818964787448cc
0,       1099,       1099,        1,   590208, ed010f8efbb644fd3d818964787448cc
0,       1100,       1100,        1,   590208, 9ddef0ebcee777a83cade7fe856ad8b8
0,       1101,       1101,        1,   590208, ed010f8efbb644fd3d818964787448cc
0,       1102,       1102,        1,   590208, ed010f8efbb644fd3d818964787448cc
0,       1103,       1103,        1,   590208, ed010f8efbb644fd3d818964787448cc
0,       1104,       1104,        1,   590208, 2e15b0a8e8d0a0ad4f310eb28823491c
0,       1105,       1105,        1,   590208, ed010f8efbb644fd3d818964787448cc
0,       1106,       1106,        1,   590208, ed010f8efbb644fd3d818964787448cc
0,       1107,       1107,        1,   590208, ed010f8efbb644fd3d818964787448cc
0,       1108,       1108,        1,   590208, 9ddef0ebcee777a83cade7fe856ad8b8
0,       1109,       1109,        1,   590208, ed010f8efbb644fd3d818964787448cc
0,       1110,       1110,        1,   590208, ed010f8efbb644fd3d818964787448cc
0,       1111,       1111,        1,   590208, ed010f8efbb644fd3d818964787448cc
0,       1112,       1112,        1,   590208, 2e15b0a8e8d0a0ad4f310eb28823491c
0,       1113,       1113,        1,   590208, ed010f8efbb644fd3d818964787448cc
0,       1114,       1114,        1,   590208, ed010f8efbb644fd3d818964787448cc
0,       1115,       1115,        1,   590208, ed010f8efbb644fd3d818964787448cc
0,       1116,       1116,        1,   590208, 9ddef0ebcee777a83cade7fe856ad8b8
0,       1117,       1117,        1,   590208, ed010f8efbb644fd3d818964787448cc
0,       1118,       1118,        1,   590208, ed010f8efbb644fd3d818964787448cc
0,       1119,       1119,        1,   590208, ed010f8efbb644fd3d818964787448cc
0,       1120,       1120,        1,   590208, 2e15b0a8e8d0a0ad4f310eb28823491c
0,       1121,       1121,        1,   590208, ed010f8efbb644fd3d818964787448cc
0,       1122,       1122,        1,   590208, ed010f8efbb644fd3d818964787448cc
0,       1123,       1123,        1,   590208, ed010f8efbb644fd3d818964787448cc
0,       1124,       1124,        1,   590208, 9ddef0ebcee777a83cade7fe856ad8b8
0,       1125,       1125,        1,   590208, ed010f8efbb644fd3d818964787448cc
0,       1126,       1126,        1,   590208, ed010f8efbb644fd3d818964787448cc
0,       1127,       1127,        1,   590208, ed010f8efbb644fd3d818964787448cc
0,       1128,       1128,        1,   590208, 2e15b0a8e8d0a0ad4f310eb28823491c
0,       1129,       1129,        1,   590208, ed010f8efbb644fd3d818964787448cc
0,       1130,       1130,        1,   590208, ed010f8efbb644fd3d818964787448cc
0,       1131,       1131,        1,   590208, ed010f8efbb644fd3d818964787448cc
0,       1132,       1132,        1,   590208, 9ddef0ebcee777a83cade7fe856ad8b8
0,       1133,       1133,        1,   590208, ed010f8efbb644fd3d818964787448cc
0,       1134,       1134,        1,   590208, ed010f8efbb644fd3d818964787448cc
0,       1135,       1135,        1,   590208, ed010f8efbb644fd3d818964787448cc
0,       1136,       1136,        1,   590208, 2e15b0a8e8d0a0ad4f310eb28823491c
0,       1137,       1137,        1,   590208, ed010f8efbb644fd3d818964787448cc
0,       1138,       1138,        1,   590208, ed010f8efbb644fd3d818964787448cc
0,       1139,       1139,        1,   590208, ed010f8efbb644fd3d818964787448cc
0,       1140,       1140,        1,   590208, 9ddef0ebcee777a83cade7fe856ad8b8
0,       1141,       1141,        1,   590208, ed010f8efbb644fd3d818964787448cc
0,       1142,       1142,        1,   590208, ed010f8efbb644fd3d818964787448cc
0,       1143,       1143,        1,   590208, ed010f8efbb644fd3d818964787448cc
0,       1144,       1144,        1,   590208, 2e15b0a8e8d0a0ad4f310eb28823491c
0,       1145,       1145,        1,   590208, ed010f8efbb644fd3d818964787448cc
0,       1146,       1146,        1,   590208, ed010f8efbb644fd3d818964787448cc
0,       1147,       1147,        1,   590208, ed010f8efbb644fd3d818964787448cc
0,       1148,       1148,        1,   590208, 9ddef0ebcee777a83cade7fe856ad8b8
0,       1149,       1149,        1,   590208, ed010f8efbb644fd3d818964787448cc
0,       1150,       1150,        1,   590208, ed010f8efbb644fd3d818964787448cc
0,       1151,       1151,        1,   590208, ed010f8efbb644fd3d818964787448cc
0,       1152,       1152,        1,   590208, 2e15b0a8e8d0a0ad4f310eb28823491c
0,       1153,       1153,        1,   590208, ed010f8efbb644fd3d818964787448cc
0,       1154,       1154,        1,   590208, ed010f8efbb644fd3d818964787448cc
0,       1155,       1155,        1,   590208, ed010f8efbb644fd3d818964787448cc
0,       1156,       1156,        1,   590208, 9ddef0ebcee777a83cade7fe856ad8b8
0,       1157,       1157,        1,   590208, ed010f8efbb644fd3d818964787448cc
0,       1158,       1158,        1,   590208, ed010f8efbb644fd3d818964787448cc
0,       1159,       1159,        1,   590208, ed010f8efbb644fd3d818964787448cc
0,       1160,       1160,        1,   590208, 2e15b0a8e8d0a0ad4f310eb28823491c
0,       1161,       1161,        1,   590208, f1015174a99d5c40355dd40eb2bef5e0
0,       1162,       1162,        1,   590208, f1015174a99d5c40355dd40eb2bef5e0
0,       1163,       1163,        1,   590208, f1015174a99d5c40355dd40eb2bef5e0
0,       1164,       1164,        1,   590208, f1015174a99d5c40355dd40eb2bef5e0
0,       1165,       1165,        1,   590208, f1015174a99d5c40355dd40eb2bef5e0
0,       1166,       1166,        1,   590208, f1015174a99d5c40355dd40eb2bef5e0
0,       1167,       1167,        1,   590208, f1015174a99d5c40355dd40eb2bef5e0
0,       1168,       1168,        1,   590208, 0e715aba163152427d41c12a09839375
0,       1169,       1169,        1,   590208, 0e715aba163152427d41c12a09839375
0,       1170,       1170,        1,   590208, 0e715aba163152427d41c12a09839375
0,       1171,       1171,        1,   590208, 0e715aba163152427d41c12a09839375
0,       1172,       1172,        1,   590208, 74cd8c1075e189fa8674b15c48b710ee
0,       1173,       1173,        1,   590208, 74cd8c1075e189fa8674b15c48b710ee
0,       1174,       1174,        1,   590208, 74cd8c1075e189fa8674b15c48b710ee
0,       1175,       1175,        1,   590208, 74cd8c1075e189fa8674b15c48b710ee
0,       1176,       1176,        1,   590208, e3d252ef8e6eda2a0e3cfdbea05c13ed
0,       1177,       1177,        1,   590208, d37fb62db9d283b06116ab8722c8357f
0,       1178,       1178,        1,   590208, d37fb62db9d283b06116ab8722c8357f
0,       1179,       1179,        1,   590208, d37fb62db9d283b06116ab8722c8357f
0,       1180,       1180,        1,   590208, d37fb62db9d283b06116ab8722c8357f
0,       1181,       1181,        1,   590208, d37fb62db9d283b06116ab8722c8357f
0,       1182,       1182,        1,   590208, d37fb62db9d283b06116ab8722c8357f
0,       1183,       1183,        1,   590208, d37fb62db9d283b06116ab8722c8357f
0,       1184,       1184,        1,   590208, 13362460ed7d34ea41e8b0683c71e495
0,       1185,       1185,        1,   590208, 13362460ed7d34ea41e8b0683c71e495
0,       1186,       1186,        1,   590208, 13362460ed7d34ea41e8b0683c71e495
0,       1187,       1187,        1,   590208, 13362460ed7d34ea41e8b0683c71e495
0,       1188,       1188,        1,   590208, 105b3fb0e6cf505ab075af2c29e6b701
0,       1189,       1189,        1,   590208, 105b3fb0e6cf505ab075af2c29e6b701
0,       1190,       1190,        1,   590208, 105b3fb0e6cf505ab075af2c29e6b701
0,       1191,       1191,        1,   590208, 105b3fb0e6cf505ab075af2c29e6b701
0,       1192,       1192,        1,   590208, 105b3fb0e6cf505ab075af2c29e6b701
0,       1193,       1193,        1,   590208, 105b3fb0e6cf505ab075af2c29e6b701
0,       1194,       1194,        1,   590208, 105b3fb0e6cf505ab075af2c29e6b701
0,       1195,       1195,        1,   590208, 105b3fb0e6cf505ab075af2c29e6b701
0,       1196,       1196,        1,   590208, 105b3fb0e6cf505ab075af2c29e6b701
0,       1197,       1197,        1,   590208, 105b3fb0e6cf505ab075af2c29e6b701
0,       1198,       1198,        1,   590208, 105b3fb0e6cf505ab075af2c29e6b701
0,       1199,       1199,        1,   590208, 105b3fb0e6cf505ab075af2c29e6b701
